<?xml version="1.0" standalone="no"?>
<!DOCTYPE svg PUBLIC "-//W3C//DTD SVG 20010904//EN"
 "http://www.w3.org/TR/2001/REC-SVG-20010904/DTD/svg10.dtd">
<svg version="1.0" xmlns="http://www.w3.org/2000/svg"
 width="500.000000pt" height="500.000000pt" viewBox="0 0 500.000000 500.000000"
 preserveAspectRatio="xMidYMid meet">
<metadata>
Created by potrace 1.14, written by Peter Selinger 2001-2017
</metadata>
<g transform="translate(0.000000,500.000000) scale(0.100000,-0.100000)"
fill="#000000" stroke="none">
<path d="M1634 4986 c-3 -8 -13 -12 -25 -9 -13 4 -31 -7 -59 -36 -22 -22 -42
-41 -46 -41 -16 0 -100 -44 -107 -57 -5 -7 -31 -23 -58 -35 -27 -12 -49 -27
-49 -32 0 -6 -12 -18 -26 -26 -20 -12 -27 -24 -29 -55 -2 -22 -5 -47 -7 -55
-4 -18 48 -19 100 -2 28 9 32 8 32 -7 0 -9 -19 -37 -42 -62 -24 -25 -61 -67
-82 -93 -50 -61 -76 -86 -93 -86 -30 0 -49 -31 -133 -215 -6 -11 -14 -42 -20
-68 -11 -50 -40 -96 -40 -63 0 9 -4 16 -8 16 -10 0 -42 -98 -42 -128 0 -32
-11 -56 -20 -42 -10 17 -30 3 -30 -19 0 -21 36 -71 51 -71 6 0 8 4 4 9 -3 5
-1 12 5 16 19 12 11 -131 -11 -198 -19 -58 -34 -78 -166 -218 -167 -177 -183
-200 -183 -253 0 -33 7 -45 40 -78 23 -21 58 -47 78 -57 66 -33 76 -52 68
-123 -8 -77 -10 -88 -20 -110 -13 -28 12 -86 45 -105 32 -19 39 -53 14 -73
-22 -19 -18 -45 10 -60 33 -18 49 -65 30 -93 -29 -45 -65 -175 -65 -235 0
-144 89 -185 543 -247 224 -30 281 -66 375 -232 l41 -73 -855 0 -854 0 0 -835
0 -835 2500 0 2500 0 0 1519 c0 1333 -2 1520 -15 1531 -12 10 -15 10 -15 -1
-1 -10 -4 -8 -11 4 -5 9 -16 17 -24 17 -7 0 -16 -8 -18 -17 -4 -17 -5 -17 -6
0 0 9 -8 17 -16 17 -8 0 -15 -8 -15 -17 0 -15 -2 -16 -10 -3 -7 12 -12 12 -22
2 -19 -19 -38 -14 -38 11 -1 22 -1 22 -15 -3 -11 -20 -14 -21 -15 -7 0 10 -4
16 -9 13 -5 -4 -12 0 -14 6 -3 7 -6 3 -6 -9 -1 -25 -31 -33 -31 -8 0 21 -18
19 -23 -2 -4 -17 -5 -17 -6 -1 -1 14 -6 16 -24 9 -16 -6 -26 -4 -37 8 -14 14
-15 14 -18 -8 -3 -18 -6 -21 -12 -11 -6 10 -12 11 -22 3 -22 -19 -108 -10
-121 12 -10 19 -10 19 -17 0 -8 -22 -70 -31 -82 -11 -6 8 -11 7 -18 -4 -8 -13
-10 -12 -10 3 0 21 -16 23 -24 2 -7 -18 -32 -20 -39 -2 -4 10 -6 10 -6 0 -2
-22 -31 -14 -41 10 -8 19 -9 19 -9 3 -1 -18 -2 -18 -20 -2 -17 16 -19 16 -24
-2 -3 -15 -13 -19 -36 -18 -18 1 -36 7 -40 15 -7 11 -11 10 -20 -5 -6 -11 -11
-14 -11 -7 0 7 -11 9 -30 7 -25 -4 -30 -2 -30 14 0 24 42 33 101 22 22 -4 41
-5 43 -1 3 3 196 6 430 5 394 0 426 1 426 17 0 23 -59 47 -70 28 -12 -18 -22
-6 -25 30 -2 18 3 32 11 35 9 3 14 -2 14 -13 0 -22 21 -33 41 -20 12 7 12 9 0
9 -11 0 -11 3 -1 15 7 8 16 12 21 9 5 -3 9 11 9 30 0 20 -4 36 -10 36 -5 0
-10 -9 -10 -20 0 -11 -4 -20 -10 -20 -5 0 -10 9 -10 20 0 11 -7 20 -15 20 -8
0 -15 -9 -15 -20 0 -18 -7 -20 -70 -20 -56 0 -70 3 -70 15 0 12 -4 11 -20 -5
-28 -28 -26 -44 6 -36 15 4 32 2 40 -5 11 -9 18 -9 29 1 12 10 16 8 25 -15 5
-14 10 -30 10 -35 0 -16 -21 -22 -35 -10 -8 7 -15 7 -19 1 -8 -13 -566 -12
-566 2 0 5 -5 5 -13 -2 -7 -6 -36 -9 -63 -8 -47 2 -49 3 -52 33 -3 35 20 53
44 33 11 -9 18 -8 29 1 16 14 35 6 35 -16 0 -8 7 -14 15 -14 8 0 12 6 9 14 -3
7 2 16 10 19 11 4 16 1 16 -12 0 -28 28 -35 32 -8 2 18 10 22 37 22 19 0 36 6
38 13 5 13 -14 14 -154 14 -64 0 -73 3 -73 18 0 10 -6 20 -12 23 -44 15 48 20
422 20 402 0 420 1 420 18 0 11 -4 19 -10 19 -5 0 -10 8 -10 18 0 14 -2 15
-10 2 -9 -13 -10 -13 -11 0 0 10 -3 9 -8 -4 -11 -28 -71 -29 -71 -1 0 17 -2
17 -10 5 -8 -12 -10 -12 -11 5 -1 16 -2 15 -8 -5 -5 -17 -13 -24 -27 -22 -10
2 -27 3 -36 3 -10 0 -18 7 -18 15 0 8 -8 14 -17 13 -11 0 -13 -3 -6 -6 20 -8
15 -23 -7 -23 -11 0 -20 6 -20 14 0 8 -7 16 -15 20 -10 4 -15 -1 -15 -14 0
-25 -17 -26 -23 -2 -4 16 -5 16 -6 0 -1 -20 7 -19 -168 -21 -126 -2 -133 -1
-134 18 -1 17 -2 17 -6 3 -2 -10 -11 -19 -19 -19 -94 -8 -104 -5 -95 29 l7 27
377 0 377 0 0 78 0 79 -37 -2 c-65 -3 -69 -2 -68 27 0 43 -33 44 -37 1 -2 -25
-8 -34 -25 -36 -13 -2 -23 2 -23 8 0 7 -8 9 -22 4 -30 -9 -79 -8 -88 3 -4 4
-11 23 -15 41 -6 28 -4 32 14 32 17 0 21 -6 21 -30 0 -16 5 -30 10 -30 6 0 10
13 10 29 l0 29 90 -1 90 -1 0 -28 c0 -18 5 -28 15 -28 10 0 15 10 15 30 0 25
4 30 25 30 16 0 25 6 25 15 0 8 -4 15 -10 15 -5 0 -10 9 -10 19 0 10 -7 21
-15 25 -11 4 -15 -1 -15 -19 0 -14 -4 -25 -10 -26 -80 -6 -107 1 -113 33 -4
20 -4 20 -6 -4 -1 -32 -21 -39 -21 -8 0 27 -28 25 -32 -2 -3 -20 -9 -23 -48
-23 -45 0 -45 1 -45 35 l0 35 163 -1 c145 0 162 2 162 17 0 9 -7 22 -15 29
-12 10 -13 16 -4 26 9 11 8 18 -1 29 -10 12 -9 16 4 21 20 8 21 44 1 44 -8 0
-15 7 -15 15 0 19 -16 19 -24 0 -8 -21 -34 -19 -39 3 -4 16 -5 16 -6 0 -1 -15
-10 -18 -51 -18 -38 0 -50 4 -50 15 0 8 -4 15 -10 15 -5 0 -10 -7 -10 -15 0
-21 -56 -20 -64 1 -3 9 -6 20 -6 24 0 5 57 9 128 9 70 -1 135 0 145 0 14 1 17
10 16 49 -1 36 -3 41 -8 22 -6 -20 -15 -26 -50 -31 -38 -5 -44 -3 -52 18 -11
29 -17 29 -29 -1 -7 -21 -14 -23 -55 -22 -28 2 -50 8 -56 17 -5 8 -9 10 -10 4
0 -5 -5 1 -9 15 l-8 25 -1 -27 c-1 -22 -6 -27 -28 -27 -16 -1 -50 -1 -78 -2
-27 -1 -70 -1 -95 0 -25 0 -69 1 -97 0 -93 0 -103 2 -103 22 0 10 -4 21 -10
24 -5 3 -10 0 -10 -7 -1 -31 -19 -42 -67 -39 -26 1 -51 7 -55 14 -5 9 -10 9
-20 -1 -6 -6 -34 -12 -60 -12 -48 0 -48 0 -48 34 l0 33 93 -1 c103 -2 127 1
127 18 0 17 -72 37 -88 24 -9 -8 -19 -7 -37 2 -18 10 -28 10 -37 2 -9 -7 -19
-7 -28 -2 -12 8 -13 13 -3 29 8 13 9 22 3 26 -13 8 -3 25 16 25 8 0 14 -9 14
-20 0 -11 6 -20 14 -20 7 0 16 9 19 20 5 21 47 29 47 9 0 -5 4 -8 9 -4 5 3 12
-5 14 -17 3 -15 5 -11 5 12 1 19 -5 43 -12 53 -7 9 -11 28 -8 42 2 14 -1 32
-8 40 -17 21 -5 45 24 45 22 0 24 -4 28 -57 2 -32 0 -64 -6 -71 -9 -13 1 -25
27 -34 4 -2 10 -29 15 -62 l7 -59 235 2 c328 2 316 2 403 -2 66 -3 77 -1 77
13 0 21 -43 43 -57 29 -17 -17 -44 2 -41 29 2 15 -3 27 -11 30 -10 3 -13 -2
-9 -22 7 -36 -8 -45 -77 -43 l-60 2 0 40 0 40 98 1 c88 1 97 -1 97 -18 0 -10
7 -18 15 -18 8 0 15 9 15 20 0 11 7 20 15 20 12 0 15 13 15 60 0 40 -4 60 -12
60 -9 0 -9 3 0 12 17 17 15 58 -3 58 -13 0 -17 14 -14 48 0 4 7 6 15 4 16 -3
19 29 5 44 -6 5 -12 24 -16 42 -4 24 -1 34 10 38 8 4 15 15 15 25 0 16 -8 19
-45 19 -31 0 -47 5 -54 18 -9 15 -10 15 -11 1 0 -18 -1 -18 -115 -18 -87 0
-103 4 -108 32 -4 18 -4 18 -6 -5 l-1 -27 -166 1 c-128 1 -167 4 -171 15 -7
18 -23 17 -23 -2 0 -12 -11 -14 -52 -12 -46 3 -53 7 -59 28 l-6 24 -4 -25 c-4
-22 -9 -25 -56 -28 l-53 -3 0 35 0 36 140 -1 c90 0 140 -4 140 -11 0 -7 5 -6
14 1 10 9 61 12 163 11 297 -3 473 0 473 8 0 16 -55 28 -82 18 -22 -8 -32 -6
-49 10 -21 18 -21 18 -35 -1 -14 -19 -14 -19 -28 0 -8 11 -12 23 -10 27 3 4 0
16 -6 27 -8 16 -7 22 9 31 32 17 41 12 41 -25 0 -19 5 -35 10 -35 6 0 10 11
10 25 0 32 42 55 68 38 13 -8 25 -7 47 5 l30 15 -24 9 c-13 4 -39 6 -57 2
l-34 -6 0 41 c0 44 19 63 43 42 22 -18 67 9 66 39 l0 25 -10 -23 c-11 -29 -29
-20 -29 15 0 20 4 24 20 20 16 -4 20 0 20 22 0 22 -5 27 -26 29 -15 1 -33 -3
-40 -9 -10 -8 -18 -8 -26 -2 -17 14 -79 14 -94 2 -8 -6 -14 -7 -18 0 -8 13
-198 12 -213 -1 -9 -7 -18 -7 -28 2 -12 10 -18 10 -31 -1 -11 -9 -18 -9 -22
-2 -9 14 -83 15 -99 2 -7 -7 -13 -6 -17 0 -5 7 -464 10 -1377 11 -1168 0
-1370 -2 -1375 -14z m2426 -44 c0 -5 -7 -9 -15 -9 -8 0 -12 4 -9 9 3 4 9 8 15
8 5 0 9 -4 9 -8z m139 -25 c-1 -20 -2 -20 -9 3 -6 19 -8 21 -9 6 -1 -11 -4
-17 -7 -13 -10 10 5 39 16 32 5 -3 10 -16 9 -28z m51 2 c0 -10 -7 -19 -15 -19
-15 0 -21 31 -9 43 11 10 24 -3 24 -24z m90 6 c0 -16 -6 -25 -15 -25 -15 0
-21 31 -8 43 13 14 23 6 23 -18z m48 -3 c2 -14 -2 -22 -11 -22 -17 0 -30 27
-21 41 9 16 29 4 32 -19z m92 3 c0 -16 -6 -25 -15 -25 -9 0 -15 9 -15 25 0 16
6 25 15 25 9 0 15 -9 15 -25z m50 0 c0 -18 -5 -25 -20 -25 -20 0 -28 28 -13
43 15 16 33 6 33 -18z m40 -1 c0 -14 -4 -23 -10 -19 -6 4 -8 11 -5 16 4 5 1 9
-5 9 -6 0 -8 5 -5 10 11 19 25 10 25 -16z m37 -11 c-3 -10 -5 -4 -5 12 0 17 2
24 5 18 2 -7 2 -21 0 -30z m52 10 c0 -25 -1 -25 -8 -8 -5 11 -7 23 -4 28 8 14
13 7 12 -20z m51 2 c0 -16 -6 -25 -15 -25 -15 0 -21 31 -8 43 13 14 23 6 23
-18z m39 -2 c0 -25 -1 -25 -8 -8 -5 11 -7 23 -4 28 8 14 13 7 12 -20z m59 -1
c3 -17 -2 -22 -17 -22 -14 0 -21 6 -21 18 0 38 33 41 38 4z m37 18 c3 -5 1
-10 -4 -10 -6 0 -11 5 -11 10 0 6 2 10 4 10 3 0 8 -4 11 -10z m44 -17 c0 -25
-1 -25 -8 -8 -5 11 -7 23 -4 28 8 14 13 7 12 -20z m50 0 c0 -25 -1 -25 -8 -8
-5 11 -7 23 -4 28 8 14 13 7 12 -20z m-992 -5 c-3 -8 -6 -5 -6 6 -1 11 2 17 5
13 3 -3 4 -12 1 -19z m154 -3 c5 4 9 1 9 -4 0 -6 -7 -11 -15 -11 -9 0 -15 9
-14 23 1 17 2 18 6 4 2 -9 9 -15 14 -12z m46 -7 c-3 -7 -5 -2 -5 12 0 14 2 19
5 13 2 -7 2 -19 0 -25z m143 17 c0 -8 -2 -15 -4 -15 -2 0 -6 7 -10 15 -3 8 -1
15 4 15 6 0 10 -7 10 -15z m139 -7 c0 -16 -2 -18 -6 -8 -3 8 -11 18 -17 22 -7
5 -4 8 7 8 11 0 17 -7 16 -22z m-1360 -32 c6 -7 24 -16 40 -19 45 -9 52 -59
10 -72 -25 -8 -49 11 -49 38 0 45 -13 46 -400 47 l-365 0 -80 -80 -80 -80
-105 0 -105 0 -120 -120 c-65 -65 -116 -122 -112 -126 15 -15 -15 -45 -41 -42
-23 2 -27 8 -27 33 0 23 5 31 21 33 11 2 74 57 139 122 l120 120 110 0 110 0
80 80 80 80 381 0 c312 0 384 -3 393 -14z m1039 -55 c-2 -28 -7 -36 -23 -36
-15 0 -21 8 -23 34 -4 35 11 53 35 44 9 -4 13 -18 11 -42z m70 37 c32 -32 0
-95 -34 -67 -17 14 -18 66 -1 72 19 8 22 8 35 -5z m155 -10 c13 -19 1 -68 -16
-68 -33 0 -50 53 -25 78 15 15 28 11 41 -10z m67 -29 c0 -21 -4 -39 -9 -39 -9
0 -21 70 -14 83 10 17 23 -7 23 -44z m79 37 c20 -23 10 -71 -14 -71 -15 0 -21
8 -23 28 -6 51 13 72 37 43z m76 -31 c0 -33 -3 -40 -20 -40 -15 0 -21 8 -23
28 -5 39 5 59 25 55 14 -2 18 -13 18 -43z m68 0 c0 -19 -3 -38 -6 -42 -4 -3
-7 10 -7 31 0 22 -4 35 -10 31 -5 -3 -10 -2 -10 4 0 10 22 21 29 15 2 -2 4
-20 4 -39z m96 20 l20 -26 3 23 c2 15 10 23 23 23 17 0 20 -7 20 -40 0 -34 -3
-40 -22 -43 -13 -2 -23 1 -23 7 0 6 -7 11 -15 11 -8 0 -15 -5 -15 -11 0 -6
-10 -9 -22 -7 -17 2 -24 11 -26 31 -7 60 22 76 57 32z m131 -22 c0 -27 -4 -43
-9 -37 -11 12 -22 70 -14 78 16 15 23 2 23 -41z m-928 6 c-4 -24 -1 -30 9 -27
8 3 13 17 12 33 -2 20 1 25 8 18 18 -18 6 -58 -18 -61 -19 -3 -23 1 -23 26 0
23 7 42 15 42 1 0 -1 -14 -3 -31z m97 -6 c-2 -31 -3 -33 -6 -10 -2 15 -9 27
-14 27 -6 0 -7 5 -4 10 13 22 25 8 24 -27z m231 3 c0 -19 -4 -38 -10 -41 -6
-4 -10 7 -10 24 0 17 -5 31 -11 31 -5 0 -7 5 -4 10 15 24 35 9 35 -24z m-1035
-26 c4 -6 58 -10 128 -10 l122 0 93 -91 c50 -51 92 -87 92 -80 0 6 9 11 20 11
16 0 20 -7 20 -32 0 -23 10 -42 36 -69 34 -35 38 -36 53 -21 15 15 16 13 19
-19 4 -41 33 -75 73 -83 18 -3 33 -15 39 -28 7 -18 9 -19 9 -5 1 28 31 21 31
-8 0 -21 -5 -25 -29 -25 -31 0 -49 -14 -31 -25 5 -3 10 -17 10 -29 0 -13 7
-29 14 -36 13 -10 15 -7 13 16 -2 22 4 30 24 37 14 6 38 7 51 4 28 -7 45 -36
28 -47 -6 -4 -9 -22 -8 -40 1 -20 -3 -35 -10 -38 -18 -6 -14 -20 8 -27 16 -5
20 -15 20 -46 0 -21 -4 -39 -10 -39 -6 0 -10 -32 -10 -75 0 -83 -8 -75 80 -79
29 -1 34 -4 32 -21 -5 -26 -12 -33 -12 -12 0 10 -7 17 -15 17 -8 0 -15 -7 -15
-15 0 -21 -30 -19 -30 3 -1 14 -3 12 -13 -6 -7 -12 -16 -19 -20 -16 -4 4 -7 0
-7 -9 0 -9 6 -17 14 -17 9 0 12 -7 9 -20 -3 -11 -2 -28 2 -37 7 -15 9 -13 14
12 4 21 13 31 27 33 18 2 23 -3 27 -30 7 -43 -12 -65 -42 -49 -12 7 -26 9 -31
6 -16 -10 -12 -42 6 -49 12 -4 15 -17 13 -49 -2 -23 0 -76 5 -117 5 -54 4 -83
-5 -105 -12 -28 -13 -29 -16 -7 -3 12 -9 22 -14 22 -5 0 -9 14 -9 30 0 23 4
30 20 30 11 0 20 5 20 11 0 6 -16 9 -37 7 l-38 -3 3 -46 c2 -31 -1 -49 -11
-57 -18 -15 -47 -5 -47 15 0 28 -25 6 -28 -25 -3 -31 -1 -33 38 -36 17 -1 27
-56 11 -56 -6 0 -12 8 -12 18 -1 16 -2 16 -6 0 -2 -10 -11 -18 -19 -18 -8 0
-14 -4 -14 -9 0 -20 33 -33 80 -33 51 0 58 -7 44 -42 -9 -23 -24 -19 -25 7 -1
20 -1 20 -10 -5 -7 -17 -15 -25 -25 -21 -8 3 -14 0 -14 -6 0 -6 -7 -11 -16
-11 -8 0 -13 4 -9 9 3 5 -9 10 -27 11 -18 0 -41 1 -50 1 -11 0 -18 8 -19 22 0
21 -1 21 -9 2 -20 -47 -14 -55 40 -50 47 3 52 2 60 -21 13 -34 3 -51 -36 -64
-38 -13 -46 -31 -12 -27 18 1 23 -4 25 -23 2 -22 2 -23 -6 -5 l-10 20 -1 -20
c0 -17 -2 -18 -10 -4 -13 22 -40 17 -74 -14 -29 -27 -29 -28 -10 -43 13 -11
15 -17 7 -20 -7 -3 -15 -5 -19 -4 -3 1 -12 -7 -21 -17 -14 -17 -14 -17 -10 5
3 12 1 20 -4 16 -5 -3 -9 -15 -9 -27 0 -18 -2 -19 -10 -7 -9 12 -20 5 -63 -40
-42 -44 -57 -54 -79 -52 -26 3 -27 1 -21 -31 4 -29 2 -37 -17 -47 -12 -6 -29
-8 -38 -4 -35 15 -60 17 -177 18 l-120 1 -33 38 c-19 20 -37 37 -41 37 -3 0
-12 -10 -19 -21 -12 -19 -11 -24 12 -48 l26 -27 0 -317 c0 -236 3 -322 12
-337 16 -24 0 -55 -27 -55 -27 0 -43 31 -27 55 9 15 12 101 12 332 l0 313 -91
91 c-55 55 -97 90 -106 87 -9 -3 -11 0 -7 10 3 8 1 18 -5 22 -7 4 -11 84 -11
238 l0 231 -177 178 -177 178 -141 -1 c-107 -1 -146 -5 -167 -17 -22 -13 -29
-13 -42 -3 -21 17 -20 60 0 68 9 3 25 1 35 -5 12 -8 67 -12 148 -12 71 0 142
-3 158 -6 22 -4 83 -57 212 -184 l181 -178 0 -231 c0 -216 1 -232 18 -229 16
3 17 26 20 282 1 180 -1 283 -8 290 -13 13 -13 79 0 71 6 -3 7 1 4 10 -12 29
5 65 29 65 25 0 68 42 77 74 13 48 71 45 78 -4 4 -24 -12 -40 -41 -40 -27 0
-77 -51 -77 -77 0 -12 -4 -25 -10 -28 -6 -4 -5 -13 2 -25 10 -15 9 -23 -3 -37
-11 -13 -15 -36 -14 -78 1 -33 3 -118 4 -190 1 -94 4 -125 12 -112 19 32 69
14 69 -25 0 -9 44 -62 99 -116 l99 -99 48 1 c48 1 49 1 46 31 -4 34 -47 85
-72 85 -23 0 -40 20 -40 49 0 20 -2 23 -10 11 -14 -22 -23 -5 -10 19 10 20 8
21 -30 21 -22 0 -40 -4 -40 -10 0 -15 -50 -12 -55 3 -2 6 -5 21 -7 32 -2 11
-12 22 -23 25 -13 4 -22 18 -26 40 -4 19 -7 31 -8 27 0 -4 -10 -3 -21 3 -21
11 -27 54 -10 65 8 5 7 11 -1 21 -7 8 -9 27 -5 48 6 29 10 34 28 31 12 -3 26
-9 32 -15 5 -5 52 -10 103 -10 l94 0 37 38 c20 21 42 51 47 67 17 49 75 42 75
-9 0 -15 6 -22 21 -22 34 0 14 44 -48 103 l-55 53 -74 0 c-43 0 -74 -4 -74
-10 0 -5 10 -10 23 -10 12 0 28 -9 35 -21 11 -18 11 -24 -2 -38 -9 -10 -16
-24 -16 -31 0 -24 37 19 43 50 11 55 81 46 75 -9 -2 -20 -9 -27 -30 -29 -31
-4 -39 -22 -10 -22 14 0 15 -2 2 -9 -8 -6 -18 -7 -22 -4 -16 9 -38 -19 -38
-47 0 -23 -5 -30 -30 -35 -18 -4 -36 -2 -44 4 -7 6 -16 8 -19 4 -4 -3 -7 -1
-7 5 0 7 -5 12 -11 12 -5 0 -8 -4 -5 -9 7 -11 -37 -23 -57 -15 -35 13 -25 74
11 74 20 0 82 56 82 74 0 6 3 21 6 34 6 21 4 22 -21 16 -18 -5 -30 -2 -36 7
-14 22 -11 59 5 65 8 3 12 13 10 22 -3 9 4 5 16 -10 21 -27 26 -28 106 -28
l85 0 51 -47 c28 -27 100 -98 161 -159 91 -92 115 -111 137 -109 15 1 32 5 39
9 20 13 -6 34 -37 30 -15 -2 -19 -1 -9 2 22 7 16 30 -7 26 -10 -2 -16 4 -16
16 0 20 -110 132 -129 132 -6 0 -11 6 -11 13 0 8 -9 22 -20 32 -11 10 -20 15
-20 11 0 -4 -9 -2 -20 4 -24 13 -26 52 -5 70 12 10 13 16 4 26 -13 16 -126 11
-172 -7 -20 -9 -31 -8 -42 1 -20 17 -19 57 2 68 16 9 16 11 0 27 -19 18 -22
50 -7 60 6 3 10 26 10 50 0 40 5 49 60 104 41 41 60 68 60 85 0 13 6 27 13 29
6 3 -10 6 -36 6 -27 1 -57 -4 -68 -9 -41 -23 -80 30 -44 60 12 10 21 10 41 1
14 -6 77 -11 148 -11 99 0 126 3 136 15 7 9 10 18 7 21 -10 11 -59 7 -66 -4
-4 -6 -12 1 -19 18 -16 34 -2 70 26 70 24 0 82 64 80 87 -3 40 2 53 23 53 15
0 19 5 15 15 -3 8 -1 15 4 15 6 0 10 -7 10 -15 0 -19 19 -20 26 -1 6 15 -3 29
-40 66 -15 15 -22 17 -27 8 -7 -10 -11 -10 -21 1 -10 10 -10 12 0 7 7 -4 12
-1 12 7 0 7 -11 20 -25 27 -13 7 -22 17 -19 22 6 10 -28 48 -43 48 -4 0 -21
18 -37 40 l-30 40 -113 0 c-68 0 -121 -5 -132 -12 -33 -20 -71 11 -57 47 6 17
51 20 61 5z m-287 -30 c2 -14 22 -44 45 -67 l41 -43 102 0 c58 0 106 4 109 10
3 6 17 10 30 10 33 0 47 -47 20 -67 -16 -11 -22 -11 -41 2 -17 11 -51 15 -122
15 l-98 0 -50 50 c-27 27 -60 50 -74 52 -25 3 -37 26 -26 54 4 10 16 14 33 12
21 -2 29 -9 31 -28z m-563 10 c4 -6 83 -10 203 -10 l198 0 49 -50 c27 -27 57
-50 66 -50 22 0 43 -26 35 -45 -13 -35 -71 -28 -71 8 0 9 -20 37 -45 62 l-44
45 -193 0 c-129 0 -199 -4 -212 -12 -35 -22 -77 16 -51 47 14 17 56 20 65 5z
m2119 -25 c9 -13 17 -14 44 -4 42 14 62 -1 62 -46 0 -45 -22 -62 -63 -47 -21
8 -35 8 -41 2 -29 -29 -66 3 -66 57 0 25 16 41 49 52 2 0 9 -6 15 -14z m-270
-47 c-2 -62 -3 -65 -19 -45 -7 11 -11 26 -8 34 3 8 0 19 -8 24 -12 8 -11 12 5
24 26 20 33 13 30 -37z m94 40 c13 -13 16 -56 6 -82 -7 -19 -37 -21 -52 -3
-37 45 6 125 46 85z m90 -34 c1 -21 -2 -46 -8 -54 -9 -13 -12 -12 -22 5 -16
27 -18 78 -5 87 21 14 32 2 35 -38z m257 -7 c0 -48 -17 -66 -23 -25 -2 13 -9
29 -14 36 -7 8 -7 17 2 27 22 26 35 11 35 -38z m103 41 c17 -17 15 -73 -3 -88
-8 -7 -25 -10 -40 -6 -21 5 -25 12 -25 44 0 40 14 62 40 62 9 0 21 -5 28 -12z
m-1078 -14 c0 -8 -4 -12 -10 -9 -5 3 -10 10 -10 16 0 5 5 9 10 9 6 0 10 -7 10
-16z m100 -30 c0 -41 -2 -45 -22 -42 -17 2 -23 10 -24 28 -1 22 0 22 3 3 2
-13 11 -23 19 -23 22 0 19 67 -3 73 -14 4 -12 5 5 6 20 1 22 -4 22 -45z m88
-2 c3 -39 1 -42 -21 -42 -20 0 -26 6 -30 33 -5 36 8 59 32 55 11 -2 17 -16 19
-46z m82 3 c0 -25 -4 -45 -10 -45 -10 0 -14 14 -10 39 1 8 -4 17 -11 21 -14 9
-3 30 17 30 10 0 14 -12 14 -45z m98 -1 c2 -31 -1 -43 -14 -48 -24 -9 -44 12
-44 49 0 38 7 47 35 43 16 -2 21 -12 23 -44z m82 9 c0 -72 -29 -80 -35 -10 -3
38 1 47 21 47 10 0 14 -11 14 -37z m-1442 -13 c2 -14 29 -49 64 -82 l60 -57
121 2 c85 2 129 7 144 17 18 11 24 12 37 1 41 -35 2 -86 -46 -60 -14 8 -67 12
-146 12 l-123 -1 -64 64 c-36 36 -73 64 -84 64 -24 0 -37 35 -20 56 19 23 53
13 57 -16z m-393 10 c3 -6 51 -10 108 -10 l102 0 54 -50 c29 -28 62 -50 72
-50 11 0 24 -11 31 -25 6 -13 19 -27 29 -30 11 -4 22 -18 25 -33 13 -55 29
-62 130 -62 76 0 95 3 102 16 7 12 17 15 36 10 21 -5 26 -12 26 -36 0 -23 -5
-31 -26 -36 -14 -4 -30 -2 -37 5 -7 7 -49 11 -107 11 -90 0 -98 2 -120 25 -12
13 -27 22 -32 19 -16 -10 -46 26 -40 48 4 15 1 19 -9 16 -21 -8 -49 10 -49 31
0 11 -21 40 -47 65 l-48 46 -95 0 c-56 0 -101 -5 -107 -11 -29 -29 -74 7 -59
47 6 16 52 19 61 4z m1382 -32 c-3 -7 -5 -2 -5 12 0 14 2 19 5 13 2 -7 2 -19
0 -25z m-1469 -6 c5 -33 189 -221 227 -230 33 -9 44 -34 25 -57 -22 -26 -50
-18 -65 19 -18 43 -198 224 -228 228 -22 3 -33 28 -23 54 10 25 60 14 64 -14z
m1282 8 c11 -11 15 -20 9 -20 -12 0 -3 -59 12 -74 5 -6 9 -23 9 -38 0 -22 -6
-29 -27 -34 -16 -4 -54 -32 -86 -63 -56 -54 -58 -58 -52 -96 3 -21 11 -45 17
-52 17 -21 1 -63 -25 -63 -35 1 -56 22 -46 47 4 11 13 24 19 28 8 5 8 11 -1
21 -8 10 -8 14 0 14 6 0 11 15 11 34 0 29 10 44 60 93 63 60 74 87 40 98 -25
8 -50 -10 -50 -36 0 -22 -32 -41 -54 -33 -37 14 -26 74 14 74 25 0 45 26 28
36 -9 6 -4 10 17 14 19 3 31 12 33 25 4 20 28 45 44 45 4 0 17 -9 28 -20z
m-1510 -50 c0 -6 28 -10 64 -10 l64 0 99 -100 c54 -55 109 -102 121 -105 12
-2 27 -7 32 -10 15 -9 12 -41 -5 -55 -22 -18 -49 -8 -60 25 -5 16 -52 71 -103
122 l-94 93 -58 0 c-32 0 -62 -4 -65 -10 -11 -17 -44 -11 -55 11 -9 15 -8 24
1 35 13 16 59 19 59 4z m488 -12 c7 -7 12 -19 12 -27 0 -9 51 -66 112 -128
l113 -113 145 0 145 0 87 88 c47 48 88 99 92 114 7 31 40 45 61 28 28 -23 11
-70 -25 -70 -8 0 -58 -43 -110 -95 l-95 -95 -155 0 -155 0 -115 115 c-63 63
-122 115 -130 115 -21 0 -40 20 -40 40 0 18 19 40 35 40 6 0 16 -5 23 -12z
m1082 2 c0 -5 -5 -10 -11 -10 -5 0 -7 5 -4 10 3 6 8 10 11 10 2 0 4 -4 4 -10z
m255 -25 c0 -20 -6 -31 -17 -33 -15 -3 -18 4 -18 33 0 29 3 36 18 33 11 -2 17
-13 17 -33z m55 -1 c0 -19 -4 -33 -8 -30 -12 7 -13 66 -1 66 5 0 9 -16 9 -36z
m59 -1 c-1 -22 -3 -29 -6 -18 -3 11 -12 28 -21 38 -14 16 -13 17 6 17 19 0 22
-5 21 -37z m120 -3 c-2 -30 -3 -31 -6 -7 -6 37 -43 39 -43 2 0 -18 -5 -25 -20
-25 -15 0 -20 7 -20 28 0 37 3 40 50 38 39 -1 40 -1 39 -36z m-2148 -36 c11
-13 26 -15 84 -9 l70 6 34 -35 c19 -20 42 -36 52 -36 42 0 52 -62 11 -68 -27
-4 -53 14 -46 32 2 6 -11 26 -29 44 -33 32 -34 32 -105 26 -40 -4 -72 -11 -72
-15 0 -17 -37 -9 -55 11 -17 19 -17 21 0 40 22 24 38 25 56 4z m2217 -21 c-1
-5 3 -18 10 -30 8 -15 9 -29 2 -47 -11 -29 -35 -33 -67 -11 -19 13 -22 13 -28
-3 -7 -15 -9 -13 -15 8 -13 42 -11 70 5 70 8 0 15 -7 15 -16 0 -8 7 -22 15
-30 13 -14 15 -13 15 3 0 11 8 29 18 41 17 21 34 30 30 15z m102 -3 c0 -5 -4
-10 -10 -10 -5 0 -10 5 -10 10 0 6 5 10 10 10 6 0 10 -4 10 -10z m204 -15 c-4
-18 -2 -25 9 -25 8 0 17 7 21 15 14 39 66 4 66 -44 0 -26 -45 -39 -72 -22 -14
9 -23 9 -33 1 -9 -8 -15 -3 -24 18 -16 38 -5 82 20 82 16 0 18 -5 13 -25z
m116 15 c0 -5 -7 -10 -15 -10 -8 0 -15 5 -15 10 0 6 7 10 15 10 8 0 15 -4 15
-10z m210 1 c0 -5 -5 -11 -11 -13 -9 -3 -9 -10 -2 -23 6 -12 7 -29 3 -41 -8
-19 -16 -22 -75 -22 -49 0 -68 3 -72 14 -4 12 -8 12 -19 -3 -17 -24 -35 -6
-37 38 -2 24 3 34 16 37 10 2 17 -3 17 -12 0 -21 26 -21 34 0 5 12 14 15 39
10 19 -3 42 0 57 8 30 17 50 19 50 7z m117 -7 c11 -10 25 -13 45 -9 17 4 35 2
43 -5 18 -15 19 -54 3 -68 -16 -13 -106 -13 -131 0 -12 6 -23 5 -33 -2 -11
-10 -15 -9 -19 1 -2 8 -9 26 -14 41 -8 21 -7 28 7 33 10 4 22 -1 30 -12 11
-15 14 -16 21 -4 5 8 7 20 4 28 -7 18 25 17 44 -3z m-972 -49 c0 -36 -3 -40
-25 -40 -29 0 -35 19 -20 59 16 43 45 31 45 -19z m67 -32 c-6 -20 -19 -6 -26
29 -4 21 -2 34 6 40 9 5 15 -2 18 -25 4 -17 4 -38 2 -44z m228 62 c0 -19 29
-20 36 -2 3 9 24 14 62 14 50 0 60 -3 68 -22 6 -12 7 -31 3 -42 -6 -18 -16
-20 -74 -20 -59 0 -68 2 -75 21 -7 16 -9 17 -9 4 -1 -21 -20 -33 -32 -21 -14
14 -18 72 -5 77 20 8 26 6 26 -9z m-2317 -35 c50 0 55 -2 102 -50 l49 -50 83
0 c46 0 92 5 102 12 26 16 51 3 51 -26 0 -34 -31 -50 -56 -31 -13 10 -46 14
-100 15 l-81 0 -49 50 c-44 46 -52 50 -94 50 -26 0 -55 -7 -66 -15 -30 -23
-59 -18 -73 12 -11 25 -10 29 10 45 20 17 24 17 45 3 14 -9 46 -15 77 -15z
m1417 15 c19 -22 4 -65 -22 -65 -34 0 -58 -29 -58 -70 0 -20 5 -41 11 -47 6
-6 9 -21 7 -34 -2 -18 -10 -25 -30 -27 -35 -4 -54 27 -33 54 8 11 15 36 15 58
0 26 8 48 25 68 14 16 25 38 25 48 0 30 40 40 60 15z m295 -5 c3 -5 2 -17 -3
-26 -8 -14 -10 -12 -14 10 -5 26 5 35 17 16z m-1971 -92 c8 -13 8 -23 -2 -38
-6 -11 -12 -36 -12 -56 0 -31 -10 -46 -70 -108 l-70 -73 0 -239 0 -239 102
-102 103 -103 287 0 c212 0 294 3 308 12 39 25 82 -31 45 -58 -14 -11 -23 -10
-46 1 -23 12 -83 15 -316 15 l-287 -1 -109 109 -108 108 0 259 0 258 65 66
c71 71 78 93 51 144 -27 53 28 94 59 45z m244 0 c7 -7 12 -19 12 -28 0 -20 55
-72 93 -88 28 -12 36 -39 15 -60 -22 -22 -48 -14 -54 17 -7 32 -69 97 -98 103
-24 4 -41 31 -33 52 7 19 48 21 65 4z m736 -10 c14 -23 -3 -52 -33 -56 -12 -2
-38 -19 -59 -38 l-37 -34 -155 0 -155 0 -103 -103 c-56 -56 -102 -110 -102
-118 0 -28 -25 -42 -50 -29 -31 17 -24 64 11 68 17 2 60 38 129 107 l105 105
155 0 156 0 30 33 c17 17 36 45 42 60 14 32 47 34 66 5z m1594 -9 c3 -23 -1
-27 -27 -31 -37 -5 -56 5 -56 29 0 24 7 28 47 28 28 0 33 -4 36 -26z m43 3 c0
-13 2 -12 9 4 7 18 16 20 66 19 46 -1 59 -5 64 -20 6 -18 7 -18 12 1 5 18 14
19 129 18 110 -1 124 -3 121 -17 -2 -12 4 -17 19 -17 17 0 19 3 10 13 -6 8 -8
17 -5 20 12 11 24 -4 24 -28 0 -21 -4 -24 -30 -22 -21 1 -30 7 -30 20 0 9 -5
17 -10 17 -6 0 -10 -8 -8 -17 3 -16 -9 -18 -124 -21 -123 -2 -128 -2 -128 18
0 11 -7 20 -15 20 -8 0 -15 -4 -15 -10 0 -5 5 -10 11 -10 5 0 7 -5 4 -10 -4
-6 -33 -9 -65 -8 -52 2 -59 5 -63 25 -2 12 -2 25 1 27 8 9 22 -4 23 -22z m578
-7 c-1 -24 -3 -25 -6 -7 -5 26 -25 31 -21 5 2 -14 -5 -18 -34 -19 -31 -1 -38
3 -38 17 0 11 -6 19 -12 19 -10 0 -10 2 -1 8 6 4 34 7 62 7 50 0 51 0 50 -30z
m97 6 c1 -12 -3 -24 -7 -27 -5 -3 -9 4 -9 15 0 12 -4 21 -10 21 -5 0 -10 -9
-10 -20 0 -15 -7 -20 -25 -20 -20 0 -24 5 -22 23 3 29 12 35 51 32 24 -2 31
-7 32 -24z m43 -3 c-1 -24 -3 -27 -6 -10 -2 12 -10 22 -16 22 -7 0 -6 4 3 10
21 13 20 14 19 -22z m-3210 13 c8 -5 15 -19 16 -30 2 -31 124 -151 152 -151
30 0 43 -45 19 -68 -19 -20 -49 -7 -54 24 -5 25 -132 154 -152 154 -38 0 -54
51 -22 69 21 13 24 13 41 2z m2261 -11 c0 -11 -2 -20 -4 -20 -2 0 -6 9 -9 20
-3 11 -1 20 4 20 5 0 9 -9 9 -20z m50 -5 c0 -16 -6 -25 -15 -25 -9 0 -15 9
-15 25 0 16 6 25 15 25 9 0 15 -9 15 -25z m40 0 c0 -14 -2 -25 -4 -25 -2 0 -6
11 -8 25 -3 14 -1 25 3 25 5 0 9 -11 9 -25z m292 -61 c22 -11 33 -13 41 -5 6
6 24 11 39 11 l28 0 -3 -62 c-3 -56 -6 -63 -25 -66 -19 -3 -22 1 -22 37 0 43
-9 55 -34 45 -10 -4 -16 -18 -16 -40 0 -27 -5 -37 -26 -46 -42 -19 -77 6 -79
57 -1 51 9 72 37 78 13 2 24 5 26 6 2 0 17 -6 34 -15z m227 6 c19 -5 39 -6 45
-3 13 9 55 4 79 -8 14 -8 16 -18 11 -52 -4 -23 -11 -48 -17 -54 -13 -17 -62
-16 -79 1 -12 11 -18 11 -37 -6 -45 -36 -91 -1 -91 69 0 36 4 45 23 53 29 12
27 12 66 0z m-1999 -15 c10 -12 48 -15 224 -15 l211 0 92 -92 93 -93 0 -119
c0 -101 3 -121 18 -132 16 -13 16 -13 -2 -14 -16 0 -17 -3 -8 -12 26 -26 7
-78 -29 -78 -32 0 -42 26 -25 61 12 24 16 63 16 158 l0 126 -82 82 -83 83
-212 0 c-130 0 -214 -4 -218 -10 -10 -17 -44 -11 -55 9 -13 25 -13 27 6 45 19
20 38 20 54 1z m1526 -22 c-3 -21 -6 -50 -6 -65 0 -18 -5 -28 -15 -28 -11 0
-15 11 -15 40 0 26 -6 42 -17 48 -26 15 -8 42 28 42 31 0 31 -1 25 -37z m700
-9 c-3 -26 -6 -55 -6 -65 0 -11 -7 -19 -15 -19 -10 0 -15 10 -15 30 0 17 -9
39 -22 52 -20 20 -20 22 -3 35 11 7 30 13 43 13 24 0 24 -2 18 -46z m134 31
c10 -12 11 -28 4 -63 -8 -44 -11 -47 -44 -50 -24 -3 -38 2 -47 14 -16 22 -17
86 -1 102 17 17 73 15 88 -3z m-1540 -27 c0 -4 -4 -8 -9 -8 -6 0 -12 4 -15 8
-3 5 1 9 9 9 8 0 15 -4 15 -9z m-1696 -24 c9 -8 16 -22 16 -31 0 -8 18 -33 40
-54 l40 -39 0 -158 0 -158 73 -72 c65 -65 76 -72 111 -72 22 0 47 7 57 16 14
12 22 13 38 4 22 -11 26 -26 15 -54 -7 -18 -49 -22 -59 -6 -3 6 -28 10 -54 10
-48 0 -51 2 -130 82 l-81 82 0 156 0 156 -37 35 c-21 19 -50 41 -65 47 -29 12
-37 39 -16 60 16 16 33 15 52 -4z m442 -59 c16 -12 75 -14 354 -15 l336 0 44
-45 c24 -24 52 -45 63 -47 49 -7 46 -73 -4 -73 -17 0 -26 8 -34 30 -5 16 -26
46 -46 67 l-36 38 -331 3 c-254 1 -334 -1 -343 -10 -33 -33 -80 0 -61 42 13
29 30 31 58 10z m2174 -60 c0 -18 4 -23 15 -19 8 4 15 15 15 25 0 14 7 19 25
19 17 0 25 -5 25 -18 0 -10 5 -23 12 -30 8 -8 8 -15 -2 -27 -14 -17 -56 -20
-65 -5 -4 7 -12 7 -24 0 -22 -11 -31 -4 -31 26 0 13 -5 26 -12 30 -8 5 -6 11
7 20 23 17 35 9 35 -21z m-2766 19 c9 -3 16 -15 16 -26 0 -11 21 -41 46 -68
l47 -49 -2 -176 c-2 -120 1 -181 9 -190 20 -25 8 -60 -22 -63 -22 -3 -29 2
-34 23 -4 15 -2 31 5 38 7 7 11 70 11 187 l0 176 -37 35 c-21 19 -50 41 -65
47 -29 12 -37 39 -16 60 14 14 20 14 42 6z m2911 -14 c-4 -14 -2 -20 8 -20 8
0 17 9 20 20 5 19 12 21 74 18 58 -3 68 -6 67 -20 -1 -10 4 -18 11 -18 7 0 12
8 11 18 0 10 6 17 17 17 9 0 17 -3 17 -7 0 -5 0 -23 0 -40 l0 -33 -120 1 c-66
0 -121 2 -123 5 -3 2 -7 21 -11 42 -6 33 -5 37 14 37 17 0 20 -4 15 -20z
m-1661 -16 c39 -38 8 -71 -59 -65 -16 1 -17 3 -6 10 9 6 -119 10 -335 11
l-349 1 -62 -63 c-33 -35 -63 -72 -65 -82 -8 -49 -68 -40 -68 10 0 18 7 25 28
30 15 4 56 35 92 70 l65 63 352 2 c287 1 355 4 364 15 15 18 24 18 43 -2z
m-1059 -24 c16 -18 16 -21 1 -44 -12 -20 -16 -51 -15 -149 l0 -124 44 -43 c25
-24 48 -41 51 -37 9 9 44 -22 44 -39 0 -7 -9 -20 -21 -28 -12 -8 -19 -18 -16
-23 3 -5 66 -10 139 -10 l133 -2 33 32 c17 17 32 41 32 53 0 12 6 25 13 27 6
3 -18 6 -55 6 -37 1 -70 -3 -73 -9 -3 -5 -17 -10 -30 -10 -32 0 -46 44 -22 67
14 15 18 15 41 0 21 -14 59 -16 253 -17 l228 0 160 -160 160 -160 -3 -226 -2
-226 87 -89 c48 -50 95 -89 105 -89 11 0 16 -5 13 -10 -4 -6 -1 -18 6 -26 10
-12 12 -70 11 -247 -3 -203 -1 -235 14 -263 15 -27 16 -35 5 -48 -33 -40 -85
3 -57 46 16 25 21 224 10 371 -5 63 -9 74 -18 61 -19 -25 -48 -13 -69 27 -11
20 -59 76 -108 125 l-89 87 0 232 0 231 -133 132 -133 132 -85 0 c-83 0 -86
-1 -116 -32 -17 -18 -33 -42 -35 -53 -4 -25 -40 -31 -57 -11 -17 20 -5 53 22
62 12 4 38 20 57 35 33 27 40 29 130 29 l95 0 142 -142 143 -143 0 -231 0
-231 24 -22 c14 -13 29 -20 35 -17 6 4 9 1 6 -6 -7 -18 119 -143 135 -133 17
11 11 19 -83 114 l-87 88 0 233 0 233 -147 149 -147 148 -156 0 c-110 -1 -150
-4 -137 -11 23 -13 22 -56 -2 -68 -10 -6 -20 -8 -23 -6 -2 3 -20 -11 -38 -30
l-34 -35 -143 0 c-97 0 -150 -4 -163 -12 -42 -26 -78 27 -41 59 29 24 18 58
-35 113 l-44 46 0 124 c0 73 -5 138 -12 158 -11 30 -11 35 7 48 25 18 28 18
50 -6z m1335 5 c10 -12 9 -20 -4 -40 -11 -17 -16 -47 -16 -103 l0 -79 -80 -79
-80 -78 0 -53 c0 -32 6 -63 16 -78 26 -40 -4 -77 -50 -59 -18 7 -22 49 -6 59
6 3 10 37 10 75 l0 69 80 83 80 83 0 72 c0 39 -4 75 -10 78 -11 7 -14 48 -3
58 12 12 50 7 63 -8z m40 -15 c0 -5 -2 -10 -4 -10 -3 0 -8 5 -11 10 -3 6 -1
10 4 10 6 0 11 -4 11 -10z m-836 -46 c19 -18 19 -20 6 -45 -13 -23 -28 -24
-66 -4 -70 36 -175 6 -187 -53 -7 -34 -40 -51 -62 -32 -28 23 -11 70 24 70 8
0 28 12 43 27 25 23 37 27 104 29 43 2 82 8 87 13 15 15 33 14 51 -5z m596 -8
c20 -26 8 -61 -22 -64 -16 -2 -28 1 -28 7 0 6 -56 10 -147 10 l-148 1 -37 -36
c-20 -20 -34 -42 -32 -49 7 -16 -24 -47 -44 -43 -8 2 -20 11 -26 21 -14 22 2
51 31 55 11 2 37 21 58 42 l39 40 147 0 c118 0 149 3 159 15 16 19 34 19 50 1z
m-433 -22 c9 -25 -14 -64 -39 -64 -12 0 -39 -16 -59 -36 l-37 -36 -136 -1
-136 -1 -29 -30 c-16 -17 -31 -42 -33 -56 -2 -19 -9 -25 -27 -25 -49 0 -54 65
-5 73 10 2 33 17 49 33 30 28 31 28 165 30 l135 1 38 36 c20 20 37 43 37 52 0
37 64 57 77 24z m545 -54 c-2 -17 1 -36 7 -44 9 -11 9 -14 -1 -13 -44 1 -64
-9 -123 -64 -61 -58 -65 -64 -65 -106 0 -24 7 -54 16 -68 14 -22 14 -25 -6
-45 -16 -16 -24 -18 -40 -10 -21 11 -27 54 -10 65 6 3 10 30 10 58 0 52 1 54
70 122 43 43 70 78 70 91 0 21 30 42 61 43 12 1 14 -6 11 -29z m-1394 -17 c2
-19 -1 -33 -7 -33 -14 0 -15 -186 -1 -195 15 -9 12 -51 -5 -65 -24 -20 -55 -3
-55 31 0 16 5 29 10 29 6 0 10 40 10 99 0 56 -4 103 -10 106 -14 9 -13 38 2
53 23 23 53 10 56 -25z m1050 -5 c7 -7 12 -19 12 -28 0 -9 16 -31 35 -50 19
-19 35 -43 35 -54 0 -12 7 -34 15 -50 17 -32 12 -61 -10 -70 -39 -14 -69 32
-41 63 9 10 16 26 16 37 0 26 -58 81 -90 86 -17 2 -26 10 -28 26 -6 41 30 66
56 40z m2022 -34 c0 -27 -20 -34 -20 -6 -1 16 -1 16 -14 0 -7 -10 -16 -18 -20
-18 -3 0 -7 8 -7 18 -1 15 -2 15 -6 1 -5 -20 -54 -29 -100 -19 -18 5 -35 5
-38 0 -7 -11 -109 1 -117 14 -6 8 -11 7 -17 -3 -12 -18 -102 -21 -108 -4 -4
10 -8 9 -18 -1 -8 -7 -26 -11 -44 -8 -24 3 -31 9 -31 28 l0 23 270 0 270 -1 0
-24z m-3156 -56 c8 -13 8 -23 -2 -38 -6 -11 -12 -46 -12 -78 l0 -59 64 -61
c36 -35 73 -62 85 -62 29 0 41 -48 16 -67 -11 -7 -22 -13 -26 -13 -14 0 -39
32 -39 50 0 10 -29 45 -65 79 l-65 60 0 61 c0 39 -6 69 -16 86 -16 23 -15 26
2 45 21 23 42 22 58 -3z m2717 -8 c24 -14 27 -75 3 -84 -27 -10 -44 12 -41 55
2 41 7 45 38 29z m81 -34 c9 -41 -1 -64 -22 -51 -6 4 -9 17 -6 30 3 12 3 25
-1 29 -14 14 -11 37 5 34 10 -2 19 -19 24 -42z m111 33 c6 6 21 11 33 11 18 0
23 -7 26 -41 3 -32 -1 -44 -15 -54 -38 -26 -15 -40 70 -41 88 -1 103 -6 103
-35 0 -11 -4 -18 -9 -14 -5 3 -12 -3 -14 -12 -3 -12 -5 -9 -6 8 -1 36 -31 48
-31 14 0 -26 0 -27 -55 -27 -19 0 -39 1 -45 1 -5 1 -11 13 -11 29 l-2 27 -4
-27 c-5 -35 -33 -46 -33 -13 0 13 -5 27 -11 30 -6 5 -4 12 7 20 11 7 15 19 11
30 -6 14 -14 16 -43 10 -44 -8 -63 6 -56 43 6 37 29 54 54 41 14 -8 23 -8 31
0z m127 -4 c-7 -9 -10 -25 -6 -41 8 -31 -11 -49 -31 -32 -10 8 -11 14 -1 25 9
11 9 16 -2 23 -19 12 4 40 32 40 17 0 18 -3 8 -15z m328 6 c11 7 26 10 34 6
18 -6 30 -67 16 -84 -10 -13 -115 -12 -136 1 -7 4 -19 3 -27 -4 -19 -16 -38
-2 -31 23 3 12 1 26 -5 33 -7 8 -6 14 1 19 19 11 39 -2 33 -23 -3 -12 1 -22
11 -25 12 -5 16 0 16 18 0 29 27 47 52 34 12 -6 24 -5 36 2z m-718 -41 c0 -22
-4 -40 -10 -40 -5 0 -10 8 -10 18 0 9 -3 27 -6 40 -5 16 -2 22 10 22 12 0 16
-10 16 -40z m541 31 c0 -3 2 -21 5 -38 2 -18 0 -34 -4 -34 -37 -6 -119 -5
-128 2 -5 4 -8 24 -6 43 l4 34 64 0 c35 0 64 -3 65 -7z m-371 -155 c0 -40 -14
-41 -22 -2 -5 31 -26 30 -30 -1 -3 -26 -6 -28 -48 -28 -43 0 -45 1 -48 33 -3
27 0 32 17 32 16 0 21 -6 21 -25 0 -14 5 -25 10 -25 6 0 10 11 10 23 0 31 2
32 49 32 l41 0 0 -39z m68 10 c4 -35 -9 -50 -36 -42 -19 6 -20 18 -6 64 7 25
39 8 42 -22z m-298 -4 c0 -34 -7 -43 -26 -35 -8 3 -14 18 -14 34 0 22 5 29 20
29 15 0 20 -7 20 -28z m50 -9 c0 -43 -5 -41 -13 5 -4 18 -2 32 3 32 6 0 10
-16 10 -37z m-1652 -65 c7 -7 12 -19 12 -28 0 -8 43 -58 95 -110 l95 -95 0
-174 c0 -145 3 -177 16 -192 28 -31 -2 -77 -40 -63 -23 9 -28 35 -12 59 11 17
15 60 15 184 l1 162 -92 94 c-63 65 -100 95 -115 95 -31 0 -44 47 -18 67 23
16 28 16 43 1z m1594 -28 c3 -36 1 -40 -17 -38 -15 2 -21 12 -23 41 -3 31 0
37 16 37 16 0 21 -8 24 -40z m58 -2 c0 -44 -17 -43 -20 2 -3 34 -2 40 10 40 6
0 10 -19 10 -42z m71 30 c-1 -5 -1 -21 -1 -38 0 -16 -4 -30 -10 -30 -5 0 -10
11 -10 24 0 14 -5 28 -10 31 -6 4 -8 11 -4 16 7 11 35 8 35 -3z m139 -19 c0
-16 5 -29 10 -29 6 0 9 12 8 28 -3 27 -3 27 62 27 55 0 65 -3 68 -19 2 -10 -5
-31 -16 -46 -13 -17 -17 -32 -12 -40 8 -13 3 -68 -7 -80 -2 -2 -33 -5 -69 -6
-54 -2 -67 1 -78 18 -15 21 -36 17 -36 -8 0 -8 -4 -14 -10 -14 -5 0 -10 9 -10
20 0 11 -4 20 -9 20 -4 0 -8 12 -7 28 1 36 37 38 47 2 l6 -25 4 25 c3 17 11
26 27 28 21 3 32 22 13 22 -5 0 -11 12 -13 27 -4 41 -38 44 -38 5 0 -17 -6
-32 -12 -34 -26 -10 -38 4 -38 42 l0 39 55 0 c54 -1 55 -2 55 -30z m200 -9 c0
-28 -4 -40 -14 -40 -9 0 -12 7 -9 20 3 11 0 26 -6 33 -12 15 -5 27 16 27 9 0
13 -13 13 -40z m80 0 c0 -36 -2 -40 -25 -40 -22 0 -25 4 -25 40 0 36 3 40 25
40 23 0 25 -4 25 -40z m-2875 -50 c9 -15 330 -13 354 2 28 17 53 3 49 -28 -4
-39 -32 -53 -57 -30 -18 17 -35 18 -175 14 -106 -4 -160 -9 -171 -18 -21 -17
-65 2 -65 28 0 34 49 58 65 32z m570 0 c3 -5 23 -10 43 -10 33 0 46 -8 112
-75 49 -49 82 -75 97 -75 31 0 44 -47 18 -66 -22 -16 -55 -2 -55 24 0 9 -33
49 -72 89 -76 77 -99 86 -142 58 -27 -18 -53 -11 -61 16 -11 35 42 69 60 39z
m1785 -62 c0 -55 -10 -55 -29 1 -12 36 -8 51 15 51 10 0 14 -13 14 -52z m95 2
c0 -41 -2 -45 -25 -45 -21 0 -26 5 -28 33 -5 47 4 64 30 60 20 -3 23 -9 23
-48z m330 40 c9 -15 -5 -90 -16 -90 -5 0 -9 14 -9 30 0 17 -4 30 -10 30 -14 0
-12 27 3 33 19 8 25 8 32 -3z m100 0 c4 -6 13 -7 23 -1 9 5 80 8 157 7 l140
-1 -1 -38 c-2 -47 -22 -73 -30 -39 -8 28 -27 28 -47 0 -13 -21 -18 -22 -46
-11 -18 6 -33 7 -37 2 -10 -17 -53 -9 -65 13 l-11 21 -19 -24 c-17 -22 -19
-23 -19 -4 -1 19 -27 63 -33 54 -1 -2 -7 -17 -13 -34 -12 -38 -42 -44 -65 -14
-23 30 -24 55 -1 68 22 13 59 14 67 1z m-645 -156 c0 -17 -6 -24 -20 -24 -14
0 -20 7 -20 23 0 13 3 26 6 30 12 12 34 -6 34 -29z m203 27 c12 -1 4 -44 -9
-48 -6 -2 -15 6 -18 19 l-7 23 -9 -22 c-8 -20 -17 -23 -69 -23 -52 0 -59 3
-64 22 -3 12 -4 25 -1 29 3 6 123 6 177 0z m-107 -91 c20 0 24 -5 24 -30 0
-28 -1 -29 -47 -27 -42 2 -48 5 -51 26 -4 26 15 44 36 36 8 -3 25 -5 38 -5z
m-136 -106 c7 -18 6 -33 -4 -52 l-14 -27 -6 25 c-4 20 -3 67 3 78 4 8 13 -1
21 -24z m84 1 c11 30 36 17 36 -20 0 -26 -3 -33 -15 -29 -8 4 -15 1 -15 -6 0
-6 -5 -8 -12 -3 -7 4 -21 6 -31 5 -23 -4 -32 24 -17 56 l12 27 18 -22 c14 -18
19 -20 24 -8z m-77 -101 c3 -8 1 -20 -6 -27 -8 -8 -11 -8 -11 1 0 10 -5 10
-20 2 -16 -9 -20 -8 -21 7 0 16 -1 16 -9 -2 -8 -19 -9 -19 -9 2 -1 16 6 23 27
26 15 2 31 5 35 6 4 0 10 -6 14 -15z m41 -82 c20 20 44 1 40 -34 -3 -32 -4
-33 -53 -33 -48 0 -50 1 -53 29 -4 33 14 49 38 36 11 -6 21 -5 28 2z m102 -23
c0 -10 5 -19 10 -19 6 0 10 9 10 19 0 20 25 35 41 25 5 -3 9 -21 9 -40 0 -26
-4 -34 -18 -34 -10 0 -23 5 -30 12 -8 8 -15 8 -27 -2 -13 -11 -15 -9 -15 13 0
14 -6 28 -12 30 -10 4 -10 8 2 16 18 13 30 5 30 -20z m130 -9 c0 -16 -4 -32
-10 -35 -6 -3 -10 5 -10 19 0 13 -6 27 -12 29 -10 4 -10 8 2 16 20 14 30 4 30
-29z m345 29 c6 -1 17 0 25 2 11 3 16 -6 18 -33 2 -22 -1 -38 -7 -38 -6 0 -11
11 -11 25 0 32 -26 33 -34 1 -5 -21 -11 -24 -56 -24 -28 0 -53 4 -56 9 -3 5
-13 5 -23 -1 -15 -7 -20 -4 -29 15 -14 31 -30 32 -34 3 -3 -20 -9 -23 -53 -24
-28 -1 -53 3 -57 10 -12 17 -9 54 3 58 11 4 291 1 314 -3z m145 1 c23 14 40
-1 40 -35 l0 -33 -55 0 -55 1 0 32 c0 35 15 48 41 34 8 -4 21 -4 29 1z m199
-1 c24 13 44 -8 39 -41 -3 -21 -8 -23 -58 -23 -53 0 -55 1 -58 29 -4 33 14 49
40 35 12 -6 25 -6 37 0z m-1080 -31 c-2 -31 -2 -31 -6 -5 -5 33 -23 36 -24 5
0 -13 -3 -17 -6 -10 -7 19 4 42 22 42 11 0 15 -9 14 -32z m61 -5 c0 -43 -5
-41 -13 5 -4 18 -2 32 3 32 6 0 10 -16 10 -37z m913 5 c-8 -43 -13 -48 -13
-15 0 15 -4 27 -10 27 -5 0 -10 5 -10 10 0 6 9 10 20 10 17 0 19 -5 13 -32z
m-915 -104 c2 -14 1 -16 -6 -5 -8 11 -10 11 -15 0 -3 -8 -6 -4 -6 9 -1 28 23
25 27 -4z m110 5 c2 -11 -6 -18 -22 -21 -38 -7 -64 26 -28 35 28 8 47 3 50
-14z m67 9 c4 -4 4 -15 1 -25 -7 -17 -8 -17 -22 2 -13 17 -16 18 -24 5 -8 -12
-10 -11 -10 5 0 16 6 21 24 20 13 0 28 -3 31 -7z m105 -10 c0 -13 -8 -18 -30
-18 -22 0 -30 5 -30 18 0 14 8 19 30 19 22 0 30 -5 30 -19z m30 0 c0 -18 -2
-20 -9 -8 -6 8 -7 18 -5 22 9 14 14 9 14 -14z m191 3 c1 -14 2 -14 6 1 3 13
16 16 64 15 53 -1 59 -3 58 -22 0 -11 -3 -14 -6 -7 -6 16 -23 16 -23 -1 0 -19
-158 -16 -171 4 -7 11 -9 10 -10 -6 -1 -17 -2 -17 -6 -2 -5 18 -23 24 -23 7 0
-5 -16 -10 -35 -10 -22 0 -35 5 -35 13 0 22 6 24 95 24 71 0 85 -2 86 -16z
m169 -3 c0 -19 -2 -20 -10 -8 -13 19 -13 30 0 30 6 0 10 -10 10 -22z m27 -10
c-3 -7 -5 -2 -5 12 0 14 2 19 5 13 2 -7 2 -19 0 -25z m51 9 c2 -12 -3 -17 -17
-17 -12 0 -21 6 -21 13 0 31 32 34 38 4z m72 3 c0 -26 -15 -33 -33 -15 -12 11
-17 12 -20 2 -3 -6 -6 -3 -6 8 -1 15 6 20 29 22 24 2 30 -2 30 -17z m59 -10
c-1 -17 -3 -19 -6 -7 -5 18 -23 24 -23 7 0 -5 -4 -10 -10 -10 -5 0 -10 9 -10
19 0 14 7 19 25 17 20 -1 25 -6 24 -26z m181 5 c0 -17 -2 -17 -10 -5 -9 13
-12 12 -22 -4 -11 -19 -11 -19 -24 -1 -11 14 -14 15 -14 4 0 -19 -48 -18 -61
2 -7 12 -9 12 -9 -1 0 -13 -1 -13 -10 0 -17 26 -12 27 70 26 73 0 80 -2 80
-21z m-1270 -6 c-7 -11 -14 -19 -16 -16 -7 7 7 37 17 37 6 0 5 -9 -1 -21z
m127 -1 c-3 -8 -6 -5 -6 6 -1 11 2 17 5 13 3 -3 4 -12 1 -19z m110 0 c-3 -8
-6 -5 -6 6 -1 11 2 17 5 13 3 -3 4 -12 1 -19z m183 12 c0 -5 -2 -10 -4 -10 -3
0 -8 5 -11 10 -3 6 -1 10 4 10 6 0 11 -4 11 -10z m-251 -93 c0 -21 -1 -21 -9
-2 l-9 20 -1 -20 c-1 -12 -4 -15 -7 -7 -7 18 5 44 17 37 5 -3 10 -16 9 -28z
m94 -5 c-6 -26 -26 -24 -31 3 -4 19 18 39 30 27 4 -4 5 -18 1 -30z m142 8 c0
-13 -6 -25 -12 -27 -16 -6 -27 21 -19 43 9 23 31 11 31 -16z m50 4 c0 -10 -8
-20 -17 -22 -18 -3 -26 27 -11 42 12 11 28 0 28 -20z m34 -1 c0 -25 -1 -25 -8
-8 -5 11 -7 23 -4 28 8 14 13 7 12 -20z m246 -3 c0 -22 -5 -25 -38 -28 -27 -2
-39 1 -43 13 -6 13 -8 14 -15 3 -7 -11 -11 -10 -19 2 -9 13 -11 13 -19 0 -13
-20 -80 -23 -88 -4 -13 34 3 39 113 39 l109 0 0 -25z m44 -2 c-1 -24 -3 -27
-6 -10 -2 12 -9 20 -14 17 -10 -7 -12 8 -2 18 14 15 23 5 22 -25z m50 5 c-1
-17 -3 -21 -6 -10 -2 9 -9 17 -14 17 -6 0 -7 5 -4 10 12 19 25 10 24 -17z m51
-4 c0 -10 -4 -19 -9 -19 -10 0 -21 36 -14 44 10 10 23 -5 23 -25z m188 6 c2
-9 -1 -22 -7 -28 -8 -8 -11 -5 -11 11 0 27 -16 29 -23 2 -7 -27 -33 -25 -42 3
l-8 22 -5 -25 -5 -25 -6 25 -7 25 -19 -22 c-11 -13 -23 -23 -27 -23 -9 0 -21
38 -14 48 3 5 43 8 88 7 70 -2 84 -5 86 -20z m41 -7 c-1 -31 -1 -31 -8 -8 -5
14 -6 28 -4 33 9 15 13 6 12 -25z m149 4 c4 -23 -13 -31 -21 -9 -3 8 -9 6 -19
-7 -17 -21 -38 -14 -38 12 -1 13 -4 11 -13 -6 l-13 -23 -11 24 c-7 14 -10 27
-7 29 2 2 30 4 61 3 51 -2 58 -4 61 -23z m-1291 -4 c-3 -8 -6 -5 -6 6 -1 11 2
17 5 13 3 -3 4 -12 1 -19z m140 0 c-3 -8 -6 -5 -6 6 -1 11 2 17 5 13 3 -3 4
-12 1 -19z m103 2 c0 -11 -2 -20 -4 -20 -2 0 -6 9 -9 20 -3 11 -1 20 4 20 5 0
9 -9 9 -20z m77 -12 c-3 -7 -5 -2 -5 12 0 14 2 19 5 13 2 -7 2 -19 0 -25z m20
0 c-3 -7 -5 -2 -5 12 0 14 2 19 5 13 2 -7 2 -19 0 -25z m43 12 c0 -11 -2 -20
-4 -20 -2 0 -6 9 -9 20 -3 11 -1 20 4 20 5 0 9 -9 9 -20z m-762 -72 c2 -19 -3
-30 -17 -38 -12 -6 -21 -8 -21 -4 0 4 -11 -3 -25 -16 -24 -23 -25 -28 -25
-152 0 -85 4 -135 12 -148 16 -24 0 -55 -27 -55 -27 0 -43 31 -27 55 8 13 12
65 12 155 0 132 1 137 25 159 14 13 25 32 25 43 0 27 10 34 40 31 19 -2 26
-10 28 -30z m666 13 c3 -5 -1 -11 -9 -15 -9 -3 -15 0 -15 9 0 16 16 20 24 6z
m308 -24 c-2 -15 1 -27 7 -27 6 0 11 11 11 24 0 48 45 37 48 -11 1 -21 -4 -23
-49 -23 l-49 0 0 36 c0 28 3 35 18 32 12 -2 16 -11 14 -31z m177 19 c17 -20 4
-56 -20 -56 -15 0 -19 7 -19 31 0 17 -4 28 -10 24 -5 -3 -10 -17 -10 -30 0
-37 -17 -39 -23 -2 -2 17 -3 34 -2 37 8 13 73 9 84 -4z m61 -27 c0 -24 -4 -30
-17 -27 -22 4 -30 47 -12 59 20 12 29 1 29 -32z m130 16 c0 -27 -13 -45 -31
-45 -14 0 -19 7 -19 29 0 29 14 42 38 33 6 -2 12 -10 12 -17z m48 -13 c3 -27
0 -32 -17 -32 -16 0 -21 6 -21 28 0 53 33 56 38 4z m51 1 c-1 -34 -2 -35 -9
-13 -11 36 -11 50 0 50 6 0 10 -17 9 -37z m69 -1 c3 -27 0 -32 -17 -32 -16 0
-21 6 -21 28 0 53 33 56 38 4z m62 3 c0 -28 -4 -35 -20 -35 -15 0 -20 7 -20
28 0 32 7 42 27 42 8 0 13 -12 13 -35z m-1030 21 c0 -3 -4 -8 -10 -11 -5 -3
-10 -1 -10 4 0 6 5 11 10 11 6 0 10 -2 10 -4z m190 0 c0 -2 -7 -6 -15 -10 -8
-3 -15 -1 -15 4 0 6 7 10 15 10 8 0 15 -2 15 -4z m120 -26 c0 -20 -5 -30 -15
-30 -10 0 -15 10 -15 30 0 20 5 30 15 30 10 0 15 -10 15 -30z m52 0 c-5 -36
-7 -35 -16 3 -4 19 -3 27 7 27 9 0 12 -9 9 -30z m360 0 c-5 -36 -7 -35 -16 3
-4 19 -3 27 7 27 9 0 12 -9 9 -30z m358 -2 c0 -36 -4 -35 -14 5 -4 16 -2 27 4
27 5 0 10 -14 10 -32z m60 2 c0 -16 -2 -30 -4 -30 -2 0 -6 14 -8 30 -3 17 -1
30 4 30 4 0 8 -13 8 -30z m-950 -26 c0 -2 -7 -4 -15 -4 -8 0 -15 4 -15 10 0 5
7 7 15 4 8 -4 15 -8 15 -10z m225 -74 c0 -13 -6 -24 -13 -26 -7 -1 -8 0 -2 3
5 2 10 13 10 23 0 10 -5 21 -10 23 -6 3 -5 4 2 3 7 -2 13 -13 13 -26z m53 5
c-2 -14 -7 -26 -13 -26 -5 0 -11 12 -13 26 -2 18 1 25 13 25 12 0 15 -7 13
-25z m44 0 c-2 -14 -6 -25 -8 -25 -2 0 -4 11 -4 25 0 14 4 25 9 25 4 0 6 -11
3 -25z m58 14 c0 -5 -4 -7 -10 -4 -5 3 -10 -3 -10 -15 0 -12 5 -18 10 -15 6 3
10 1 10 -4 0 -16 -20 -13 -26 4 -4 8 -4 22 0 30 6 17 26 20 26 4z m55 1 c3 -6
-1 -7 -9 -4 -11 4 -16 0 -16 -14 0 -11 6 -23 13 -25 9 -4 9 -6 -1 -6 -16 -1
-26 24 -18 44 6 17 22 20 31 5z m42 -27 c-3 -10 -5 -4 -5 12 0 17 2 24 5 18 2
-7 2 -21 0 -30z m58 7 c0 -13 -6 -25 -12 -27 -7 -3 -13 0 -13 7 0 6 5 8 10 5
6 -3 10 3 10 15 0 12 -4 18 -10 15 -5 -3 -10 -1 -10 5 0 7 6 10 13 8 6 -3 12
-15 12 -28z m55 0 c0 -20 -5 -30 -15 -30 -10 0 -15 10 -15 30 0 20 5 30 15 30
10 0 15 -10 15 -30z m149 3 c0 -25 -1 -25 -8 -8 -5 11 -7 23 -4 28 8 14 13 7
12 -20z m59 0 c-4 -39 -28 -42 -28 -4 0 21 5 31 16 31 11 0 14 -8 12 -27z m39
-20 c-3 -10 -5 -2 -5 17 0 19 2 27 5 18 2 -10 2 -26 0 -35z m63 17 c0 -20 -5
-30 -15 -30 -15 0 -21 40 -8 53 14 15 23 6 23 -23z m49 3 c0 -25 -1 -26 -9 -8
-12 27 -12 35 0 35 6 0 10 -12 9 -27z m-652 -99 c2 -10 0 -13 -3 -6 -8 18 -24
15 -25 -5 0 -11 -2 -13 -6 -5 -7 19 5 44 20 40 6 -3 13 -13 14 -24z m57 18 c3
-5 -1 -9 -9 -9 -8 0 -12 4 -9 9 3 4 7 8 9 8 2 0 6 -4 9 -8z m56 -2 c0 -5 -5
-10 -11 -10 -5 0 -7 5 -4 10 3 6 8 10 11 10 2 0 4 -4 4 -10z m76 -14 c2 -12 1
-13 -3 -1 -7 23 -23 18 -24 -7 0 -13 -3 -17 -6 -10 -7 19 5 44 20 40 6 -3 13
-12 13 -22z m63 -8 l-1 -33 -8 30 -7 30 -11 -25 c-10 -23 -11 -23 -11 -4 -1
24 7 34 26 34 8 0 13 -11 12 -32z m50 5 c0 -25 -1 -25 -8 -8 -5 11 -7 23 -4
28 8 14 13 7 12 -20z m78 -3 l3 -25 -12 25 -11 25 -7 -30 -8 -30 -1 33 c-1 27
3 33 17 30 10 -2 18 -14 19 -28z m60 -6 c1 -18 0 -21 -4 -9 -9 35 -23 41 -24
10 -1 -19 -3 -23 -6 -12 -6 25 4 50 20 45 6 -3 13 -18 14 -34z m52 4 c-1 -31
-1 -31 -8 -8 -5 14 -6 28 -4 33 9 15 13 6 12 -25z m74 20 c2 -7 1 -22 -4 -33
-6 -17 -8 -15 -8 10 -1 23 -4 27 -11 15 -8 -13 -10 -12 -10 3 0 19 25 23 33 5z
m65 -11 c2 -9 -2 -17 -8 -17 -6 0 -8 5 -4 12 4 7 3 8 -4 4 -16 -10 -15 -33 1
-39 9 -4 9 -6 0 -6 -17 -1 -34 34 -27 54 8 20 38 15 42 -8z m-3978 -1292 c10
-13 6 -33 -24 -117 -20 -56 -34 -103 -32 -105 3 -3 34 20 70 50 134 110 203
129 257 71 19 -21 24 -36 24 -80 0 -43 3 -53 15 -49 38 11 151 25 207 25 59 0
63 1 78 30 17 33 69 70 98 70 9 0 33 -15 52 -32 27 -25 36 -42 38 -73 l3 -40
59 2 c33 1 132 10 220 19 l160 17 52 49 c63 58 123 87 180 88 74 0 98 -57 43
-103 -27 -23 -72 -37 -173 -52 -44 -7 -70 -40 -65 -82 4 -38 46 -57 128 -56
82 0 140 18 319 95 l143 63 18 48 c42 110 82 103 55 -10 -19 -77 -19 -123 -1
-123 20 0 102 77 187 175 75 88 116 119 143 109 28 -11 27 -38 -8 -199 -21
-95 -20 -121 5 -139 26 -18 40 -14 199 67 l121 62 22 54 c12 30 28 57 36 59
12 4 13 -12 7 -94 l-7 -99 138 141 c76 77 153 146 170 153 44 18 79 8 87 -25
7 -28 7 -31 -20 -165 -9 -48 -14 -99 -10 -114 6 -25 10 -27 44 -22 20 2 89 25
152 50 140 55 223 80 252 75 16 -3 -28 -29 -152 -90 -242 -119 -289 -130 -341
-79 -35 35 -38 77 -13 195 8 42 14 82 12 88 -3 7 -79 -63 -169 -155 -168 -170
-196 -189 -218 -148 -6 10 -8 42 -4 71 l6 53 -74 -55 c-149 -111 -221 -136
-289 -101 -42 22 -59 63 -59 147 l-1 59 -54 -51 c-69 -65 -143 -112 -176 -112
-34 0 -59 28 -67 73 l-5 36 -44 -30 c-66 -45 -221 -117 -294 -135 -80 -20
-193 -15 -236 10 -50 30 -77 79 -72 130 l5 44 -54 -19 c-85 -29 -192 -48 -294
-53 -86 -4 -94 -6 -111 -29 -44 -61 -128 -85 -162 -48 -24 26 -36 83 -26 126
4 19 4 35 0 35 -20 0 -191 -54 -255 -81 -58 -24 -85 -43 -146 -106 -86 -88
-174 -157 -224 -173 -41 -14 -83 2 -101 37 -10 22 -11 22 -31 -15 -12 -20 -51
-107 -87 -191 -107 -249 -145 -300 -132 -176 9 91 57 272 101 385 52 133 237
508 269 548 31 36 38 38 56 17z"/>
<path d="M4231 4924 c0 -11 3 -14 6 -6 3 7 2 16 -1 19 -3 4 -6 -2 -5 -13z"/>
<path d="M4321 4924 c0 -11 3 -14 6 -6 3 7 2 16 -1 19 -3 4 -6 -2 -5 -13z"/>
<path d="M4371 4924 c0 -11 3 -14 6 -6 3 7 2 16 -1 19 -3 4 -6 -2 -5 -13z"/>
<path d="M4461 4924 c0 -11 3 -14 6 -6 3 7 2 16 -1 19 -3 4 -6 -2 -5 -13z"/>
<path d="M4070 4835 c0 -17 5 -25 13 -22 6 2 12 12 12 22 0 10 -6 20 -12 23
-8 2 -13 -6 -13 -23z"/>
<path d="M4311 4834 c0 -11 3 -14 6 -6 3 7 2 16 -1 19 -3 4 -6 -2 -5 -13z"/>
<path d="M4450 4853 c0 -5 5 -15 10 -23 8 -12 10 -11 10 8 0 12 -4 22 -10 22
-5 0 -10 -3 -10 -7z"/>
<path d="M4751 4834 c0 -11 3 -14 6 -6 3 7 2 16 -1 19 -3 4 -6 -2 -5 -13z"/>
<path d="M3731 4441 c-20 -20 -24 -21 -34 -7 -10 14 -12 10 -14 -21 -1 -21 1
-32 4 -25 2 6 22 12 44 12 30 0 39 -4 40 -17 0 -14 2 -15 6 -3 3 8 12 21 21
28 11 8 12 12 3 12 -7 0 -21 10 -30 22 l-18 21 -22 -22z"/>
<path d="M3630 4371 c0 -14 -6 -21 -20 -21 -11 0 -20 -7 -20 -15 0 -10 10 -15
34 -15 38 0 55 14 30 24 -9 3 -14 13 -10 21 3 8 1 17 -4 20 -6 4 -10 -3 -10
-14z"/>
<path d="M3770 4336 c0 -7 7 -19 15 -26 13 -11 15 -8 15 14 0 16 -5 26 -15 26
-8 0 -15 -6 -15 -14z"/>
<path d="M3810 4330 c0 -13 5 -20 13 -17 6 2 12 10 12 17 0 7 -6 15 -12 18 -8
2 -13 -5 -13 -18z"/>
<path d="M3676 4278 c-10 -38 -7 -58 9 -58 23 0 28 23 12 54 -14 27 -14 27
-21 4z"/>
<path d="M3794 4266 c-3 -8 0 -24 6 -36 6 -12 9 -24 6 -28 -3 -3 -6 -2 -6 3 0
4 -9 0 -20 -10 -26 -24 -25 -35 4 -35 15 0 26 -7 29 -20 3 -12 14 -20 27 -20
18 0 20 3 11 14 -9 11 -8 15 5 20 21 8 20 9 27 -41 5 -41 -7 -59 -19 -28 -7
18 -28 19 -42 2 -14 -16 24 -53 50 -49 10 2 26 -2 38 -8 14 -8 20 -8 20 0 0 7
12 10 28 8 21 -2 28 1 30 19 3 17 -2 22 -25 25 -22 2 -27 7 -25 25 2 12 -2 24
-8 28 -13 8 -3 25 16 25 8 0 14 -9 14 -20 0 -11 7 -20 15 -20 25 0 17 16 -35
69 -45 46 -79 71 -51 37 9 -10 8 -16 -3 -26 -19 -15 -36 -5 -36 23 -1 43 -44
75 -56 43z"/>
<path d="M3970 4255 c0 -14 5 -25 10 -25 6 0 10 11 10 25 0 14 -4 25 -10 25
-5 0 -10 -11 -10 -25z"/>
<path d="M3620 4235 c-10 -12 -10 -15 4 -15 9 0 16 7 16 15 0 8 -2 15 -4 15
-2 0 -9 -7 -16 -15z"/>
<path d="M3510 4190 c-44 -3 -70 -8 -62 -13 28 -18 -2 -98 -30 -81 -5 4 -34
-18 -64 -47 -56 -55 -72 -103 -39 -115 9 -4 15 -19 15 -39 0 -19 5 -37 10 -40
18 -11 1 -23 -23 -17 -20 5 -21 4 -8 -11 12 -15 32 -17 132 -16 84 0 119 4
119 13 0 6 -10 16 -22 21 -16 7 -24 20 -27 45 -3 28 -5 31 -10 16 -7 -19 -8
-18 -14 3 -5 22 -4 23 33 17 34 -5 44 -2 75 25 22 20 35 40 34 53 -2 34 1 42
10 27 7 -11 15 -9 40 10 35 25 38 34 16 43 -8 3 -15 1 -15 -4 0 -4 -16 -6 -36
-4 -47 6 -65 -16 -57 -69 5 -36 4 -39 -17 -35 -13 1 -25 9 -28 17 -3 9 0 11 8
6 9 -5 11 -4 6 3 -5 8 -13 9 -26 2 -29 -16 -100 -101 -100 -121 0 -10 -9 -23
-20 -29 -16 -8 -24 -6 -41 11 -18 18 -19 23 -6 42 8 12 23 23 34 25 22 3 174
152 155 152 -6 0 -12 10 -12 22 0 12 3 18 6 15 4 -3 15 -2 25 3 12 7 19 6 22
-3 3 -7 7 -4 12 8 14 42 23 50 66 56 24 3 40 7 34 9 -19 5 -121 5 -195 0z
m-65 -210 c-3 -5 -12 -10 -20 -10 -8 0 -17 5 -20 10 -4 6 5 10 20 10 15 0 24
-4 20 -10z m56 -133 c-1 -12 -15 -9 -19 4 -3 6 1 10 8 8 6 -3 11 -8 11 -12z"/>
<path d="M3678 4145 c2 -14 11 -25 20 -25 12 0 13 3 4 12 -8 8 -9 15 -1 25 9
10 7 13 -8 13 -16 0 -19 -5 -15 -25z"/>
<path d="M3780 4124 c0 -8 5 -12 10 -9 6 3 10 10 10 16 0 5 -4 9 -10 9 -5 0
-10 -7 -10 -16z"/>
<path d="M3757 4066 c-6 -15 1 -26 15 -26 11 0 10 27 -1 34 -5 3 -11 0 -14 -8z"/>
<path d="M3942 4000 c0 -14 2 -19 5 -12 2 6 2 18 0 25 -3 6 -5 1 -5 -13z"/>
<path d="M3900 3992 c0 -22 -3 -23 -55 -21 -46 2 -60 -1 -78 -19 l-21 -22 22
0 c12 0 22 -5 22 -10 0 -7 6 -7 19 -1 10 6 55 11 100 12 68 2 81 5 81 19 0 25
-10 31 -33 18 -14 -7 -22 -7 -24 -1 -2 6 -10 19 -18 29 -14 18 -14 18 -15 -4z"/>
<path d="M3637 3952 c-23 -26 -21 -35 6 -26 12 4 29 7 39 6 9 0 24 8 34 19 17
18 16 19 -23 19 -26 0 -46 -6 -56 -18z"/>
<path d="M3581 3858 c-6 -10 -11 -25 -11 -35 0 -13 6 -11 30 12 17 16 30 31
30 35 0 14 -39 4 -49 -12z"/>
<path d="M3730 3864 c0 -14 3 -14 15 -4 8 7 15 14 15 16 0 2 -7 4 -15 4 -8 0
-15 -7 -15 -16z"/>
<path d="M3690 3860 c0 -5 5 -10 11 -10 5 0 7 5 4 10 -3 6 -8 10 -11 10 -2 0
-4 -4 -4 -10z"/>
<path d="M3798 3865 c-3 -3 -3 -28 0 -55 3 -35 1 -50 -8 -50 -8 0 -10 9 -5 29
4 20 2 30 -9 34 -20 8 -42 -19 -28 -35 5 -7 12 -24 14 -37 2 -18 12 -27 36
-33 25 -7 32 -14 32 -33 0 -19 5 -25 21 -25 17 0 20 5 17 25 -3 14 -1 25 3 25
5 0 9 -15 9 -34 0 -42 22 -61 65 -58 28 2 34 -1 38 -20 3 -18 5 -17 6 7 0 17
-3 45 -9 63 -6 24 -6 39 3 53 9 15 9 23 0 38 -8 13 -8 22 -1 29 11 11 -7 82
-22 82 -4 0 -7 -22 -6 -49 3 -53 -6 -82 -18 -62 -4 6 -4 20 -1 31 4 11 2 20
-4 20 -14 0 -14 32 -1 48 7 9 7 9 -2 2 -7 -5 -22 -10 -34 -10 -13 0 -26 5 -29
10 -6 10 -58 14 -67 5z m87 -65 c0 -29 -4 -36 -22 -38 -21 -3 -23 1 -23 38 0
37 2 41 23 38 18 -2 22 -9 22 -38z m60 -121 c0 -24 -5 -34 -15 -34 -16 0 -25
37 -16 62 10 26 31 8 31 -28z"/>
<path d="M3850 3800 c0 -11 7 -20 15 -20 8 0 15 9 15 20 0 11 -7 20 -15 20 -8
0 -15 -9 -15 -20z"/>
<path d="M3920 3681 c0 -25 6 -27 13 -6 4 8 2 17 -3 20 -6 4 -10 -3 -10 -14z"/>
<path d="M3630 3805 c0 -8 5 -15 10 -15 6 0 10 7 10 15 0 8 -4 15 -10 15 -5 0
-10 -7 -10 -15z"/>
<path d="M4086 3811 c-4 -7 -5 -15 -2 -18 9 -9 19 4 14 18 -4 11 -6 11 -12 0z"/>
<path d="M3511 3754 c0 -11 3 -14 6 -6 3 7 2 16 -1 19 -3 4 -6 -2 -5 -13z"/>
<path d="M3541 3754 c0 -11 3 -14 6 -6 3 7 2 16 -1 19 -3 4 -6 -2 -5 -13z"/>
<path d="M3616 3749 c3 -5 19 -9 36 -9 17 0 28 3 24 7 -11 11 -67 12 -60 2z"/>
<path d="M3730 3750 c0 -5 5 -10 10 -10 6 0 10 5 10 10 0 6 -4 10 -10 10 -5 0
-10 -4 -10 -10z"/>
<path d="M3530 3701 c0 -5 7 -15 17 -22 15 -13 15 -12 4 9 -12 23 -21 28 -21
13z"/>
<path d="M3630 3690 c0 -4 -7 -7 -15 -8 -8 -1 -22 -3 -30 -4 -17 -2 -21 -18
-4 -18 5 0 8 -4 5 -8 -3 -5 5 -18 17 -29 12 -11 29 -30 37 -41 16 -25 50 -30
50 -7 0 7 -7 18 -16 23 -16 9 -16 12 0 42 24 49 21 61 -14 58 -16 -1 -30 -5
-30 -8z m17 -47 c-3 -3 -11 -2 -17 2 -9 6 -9 10 1 16 14 8 27 -7 16 -18z"/>
<path d="M3710 3685 c-10 -12 -10 -15 4 -15 9 0 16 7 16 15 0 8 -2 15 -4 15
-2 0 -9 -7 -16 -15z"/>
<path d="M3805 3690 c3 -5 8 -10 11 -10 2 0 4 5 4 10 0 6 -5 10 -11 10 -5 0
-7 -4 -4 -10z"/>
<path d="M3740 3681 c0 -6 5 -13 10 -16 6 -3 10 1 10 9 0 9 -4 16 -10 16 -5 0
-10 -4 -10 -9z"/>
<path d="M4020 3657 c0 -20 4 -37 10 -37 5 0 7 14 5 31 -6 45 -15 49 -15 6z"/>
<path d="M3750 3636 c0 -2 7 -6 15 -10 8 -3 15 -1 15 4 0 6 -7 10 -15 10 -8 0
-15 -2 -15 -4z"/>
<path d="M3781 3584 c0 -11 3 -14 6 -6 3 7 2 16 -1 19 -3 4 -6 -2 -5 -13z"/>
<path d="M3917 3593 c-4 -3 -7 -17 -7 -30 0 -16 -6 -23 -19 -23 -11 0 -23 -4
-26 -10 -3 -5 3 -10 14 -10 12 0 21 -5 21 -12 0 -31 23 14 26 51 4 42 3 46 -9
34z"/>
<path d="M3952 3580 c0 -14 2 -19 5 -12 2 6 2 18 0 25 -3 6 -5 1 -5 -13z"/>
<path d="M3887 3583 c-4 -3 -7 -11 -7 -17 0 -6 5 -5 12 2 6 6 9 14 7 17 -3 3
-9 2 -12 -2z"/>
<path d="M4030 3576 c0 -8 5 -18 10 -21 6 -3 10 3 10 14 0 12 -4 21 -10 21 -5
0 -10 -6 -10 -14z"/>
<path d="M3702 3556 c-12 -26 -7 -36 18 -36 13 0 16 7 12 30 -5 36 -15 38 -30
6z"/>
<path d="M3838 3563 c7 -3 16 -2 19 1 4 3 -2 6 -13 5 -11 0 -14 -3 -6 -6z"/>
<path d="M3192 3548 c-7 -7 -12 -16 -12 -21 0 -5 7 -1 16 8 9 9 14 18 12 20
-2 3 -10 -1 -16 -7z"/>
<path d="M3502 3491 c3 -32 -16 -61 -41 -61 -9 0 -41 -25 -71 -55 l-54 -55
-126 -1 c-69 -1 -116 -4 -105 -6 11 -3 25 -9 30 -14 6 -4 99 -8 207 -9 l195 0
59 -58 c56 -56 107 -81 120 -60 4 6 10 5 14 -2 6 -9 11 -7 19 9 7 11 18 21 25
21 7 0 13 7 13 15 0 8 -6 15 -13 15 -6 0 -14 13 -16 30 -4 29 -4 29 51 32 44
2 57 7 59 20 3 15 -3 17 -37 14 -31 -3 -41 -1 -41 10 0 9 -11 3 -30 -16 -16
-17 -30 -38 -30 -48 0 -18 -3 -14 -44 59 -16 31 -170 189 -182 189 -3 0 -4
-13 -2 -29z"/>
<path d="M3332 3447 c-55 -56 -64 -81 -33 -90 25 -6 116 81 123 118 9 43 -32
31 -90 -28z"/>
<path d="M3835 3449 c-10 -15 5 -49 21 -49 19 0 18 46 -1 53 -8 4 -17 2 -20
-4z"/>
<path d="M3950 3450 c0 -5 5 -10 10 -10 6 0 10 5 10 10 0 6 -4 10 -10 10 -5 0
-10 -4 -10 -10z"/>
<path d="M3087 3385 c-9 -22 7 -27 94 -27 85 -1 95 2 86 27 -9 22 -172 22
-180 0z"/>
<path d="M3174 3234 c16 -16 181 -24 204 -10 7 4 12 2 12 -8 0 -8 28 -43 63
-76 58 -57 65 -61 100 -57 27 4 37 1 37 -9 0 -8 -4 -14 -10 -14 -5 0 -10 -13
-10 -28 0 -37 30 -37 67 1 27 26 27 27 10 62 -9 20 -17 42 -17 49 0 7 -22 34
-49 59 l-50 47 -186 0 c-162 -1 -184 -3 -171 -16z m416 -74 c0 -5 -5 -10 -11
-10 -5 0 -7 5 -4 10 3 6 8 10 11 10 2 0 4 -4 4 -10z"/>
<path d="M3270 3171 c0 -5 9 -7 20 -4 24 6 50 -13 50 -36 0 -22 61 -81 83 -81
9 0 22 -9 29 -20 7 -11 18 -20 25 -20 7 0 13 -10 13 -22 0 -15 3 -19 10 -12
28 28 -81 177 -122 166 -17 -4 -19 -2 -13 17 6 20 3 21 -44 21 -28 0 -51 -4
-51 -9z"/>
<path d="M3040 3121 c0 -5 10 -11 23 -13 15 -2 23 -11 25 -28 5 -32 40 -70 64
-70 11 0 17 -4 13 -9 -3 -5 -1 -12 4 -15 5 -3 12 2 15 11 5 12 -10 34 -51 75
-52 52 -93 74 -93 49z"/>
<path d="M3011 3054 c-1 -29 41 -68 57 -52 18 18 15 25 -17 31 -16 4 -31 14
-34 24 -4 15 -5 15 -6 -3z"/>
<path d="M3693 3043 c-23 -16 -30 -38 -15 -47 10 -6 62 40 62 54 0 14 -22 11
-47 -7z"/>
<path d="M2972 2998 c-20 -20 -14 -33 47 -91 64 -62 75 -66 90 -40 7 14 -3 30
-54 80 -34 35 -65 63 -67 63 -2 0 -9 -5 -16 -12z"/>
<path d="M3076 2993 c-5 -12 14 -37 66 -90 l73 -73 138 0 c126 0 137 1 123 16
-12 12 -41 16 -125 18 l-108 2 -48 42 c-26 23 -54 42 -62 42 -8 0 -12 4 -9 8
6 10 -21 52 -33 52 -5 0 -12 -7 -15 -17z"/>
<path d="M3196 2975 c-3 -8 6 -28 20 -44 l25 -30 182 0 c198 1 217 6 217 57
l0 26 -28 -27 c-28 -27 -29 -27 -183 -27 l-155 0 -29 30 c-32 34 -40 36 -49
15z"/>
<path d="M3455 2980 c-3 -5 -1 -10 4 -10 6 0 11 5 11 10 0 6 -2 10 -4 10 -3 0
-8 -4 -11 -10z"/>
<path d="M3651 2974 c0 -11 3 -14 6 -6 3 7 2 16 -1 19 -3 4 -6 -2 -5 -13z"/>
<path d="M3830 4731 c0 -5 7 -14 15 -21 13 -10 15 -9 15 9 0 12 -6 21 -15 21
-8 0 -15 -4 -15 -9z"/>
<path d="M4010 4715 c0 -14 5 -25 10 -25 6 0 10 11 10 25 0 14 -4 25 -10 25
-5 0 -10 -11 -10 -25z"/>
<path d="M3440 4610 c0 -5 5 -10 11 -10 5 0 7 5 4 10 -3 6 -8 10 -11 10 -2 0
-4 -4 -4 -10z"/>
<path d="M3780 4600 c0 -19 3 -21 12 -12 9 9 9 15 0 24 -9 9 -12 7 -12 -12z"/>
<path d="M3960 4600 c0 -5 5 -10 10 -10 6 0 10 5 10 10 0 6 -4 10 -10 10 -5 0
-10 -4 -10 -10z"/>
<path d="M3855 4500 c3 -5 8 -10 11 -10 2 0 4 5 4 10 0 6 -5 10 -11 10 -5 0
-7 -4 -4 -10z"/>
<path d="M4450 4380 c0 -5 5 -10 11 -10 5 0 7 5 4 10 -3 6 -8 10 -11 10 -2 0
-4 -4 -4 -10z"/>
<path d="M3032 2730 c14 -22 24 -19 15 5 -4 8 -11 15 -17 15 -6 0 -6 -7 2 -20z"/>
<path d="M4102 3680 c0 -14 2 -19 5 -12 2 6 2 18 0 25 -3 6 -5 1 -5 -13z"/>
<path d="M4092 3580 c0 -14 2 -19 5 -12 2 6 2 18 0 25 -3 6 -5 1 -5 -13z"/>
<path d="M4395 3531 c-7 -12 21 -18 59 -12 20 2 24 6 15 12 -19 12 -66 11 -74
0z"/>
<path d="M3991 3354 c0 -11 3 -14 6 -6 3 7 2 16 -1 19 -3 4 -6 -2 -5 -13z"/>
<path d="M4151 3354 c0 -11 3 -14 6 -6 3 7 2 16 -1 19 -3 4 -6 -2 -5 -13z"/>
<path d="M4021 3174 c0 -11 3 -14 6 -6 3 7 2 16 -1 19 -3 4 -6 -2 -5 -13z"/>
<path d="M3982 2970 c0 -14 2 -19 5 -12 2 6 2 18 0 25 -3 6 -5 1 -5 -13z"/>
<path d="M4262 2690 c0 -14 2 -19 5 -12 2 6 2 18 0 25 -3 6 -5 1 -5 -13z"/>
<path d="M4322 2690 c0 -14 2 -19 5 -12 2 6 2 18 0 25 -3 6 -5 1 -5 -13z"/>
<path d="M4442 2690 c0 -14 2 -19 5 -12 2 6 2 18 0 25 -3 6 -5 1 -5 -13z"/>
<path d="M4502 2690 c0 -14 2 -19 5 -12 2 6 2 18 0 25 -3 6 -5 1 -5 -13z"/>
<path d="M4622 2690 c0 -14 2 -19 5 -12 2 6 2 18 0 25 -3 6 -5 1 -5 -13z"/>
<path d="M4682 2690 c0 -14 2 -19 5 -12 2 6 2 18 0 25 -3 6 -5 1 -5 -13z"/>
<path d="M4802 2690 c0 -14 2 -19 5 -12 2 6 2 18 0 25 -3 6 -5 1 -5 -13z"/>
<path d="M4850 2690 c0 -5 5 -10 10 -10 6 0 10 5 10 10 0 6 -4 10 -10 10 -5 0
-10 -4 -10 -10z"/>
<path d="M4142 2690 c0 -14 2 -19 5 -12 2 6 2 18 0 25 -3 6 -5 1 -5 -13z"/>
<path d="M4302 2590 c0 -14 2 -19 5 -12 2 6 2 18 0 25 -3 6 -5 1 -5 -13z"/>
<path d="M4612 2590 c0 -14 2 -19 5 -12 2 6 2 18 0 25 -3 6 -5 1 -5 -13z"/>
<path d="M4822 2590 c0 -14 2 -19 5 -12 2 6 2 18 0 25 -3 6 -5 1 -5 -13z"/>
<path d="M4922 2590 c0 -14 2 -19 5 -12 2 6 2 18 0 25 -3 6 -5 1 -5 -13z"/>
<path d="M1137 1054 c-26 -14 -82 -57 -124 -97 -73 -70 -160 -183 -149 -194 3
-3 29 10 58 29 29 19 99 59 155 88 57 29 110 64 119 78 23 35 31 102 13 113
-18 11 -17 12 -72 -17z"/>
<path d="M2370 1048 c-20 -12 -30 -23 -23 -25 18 -6 79 15 93 33 20 23 -28 18
-70 -8z"/>
<path d="M1670 1031 c0 -6 9 -20 20 -31 27 -27 47 -16 27 13 -16 24 -47 35
-47 18z"/>
<path d="M1600 934 c-15 -44 -6 -84 18 -84 10 0 30 12 45 28 l26 27 -33 33
c-18 17 -36 32 -39 32 -3 0 -11 -16 -17 -36z"/>
<path d="M1000 759 c-64 -35 -103 -69 -79 -69 19 0 98 50 123 78 25 28 22 28
-44 -9z"/>
<path d="M4971 4924 c0 -11 3 -14 6 -6 3 7 2 16 -1 19 -3 4 -6 -2 -5 -13z"/>
<path d="M4100 4010 c0 -5 7 -10 16 -10 8 0 12 5 9 10 -3 6 -10 10 -16 10 -5
0 -9 -4 -9 -10z"/>
<path d="M4926 4011 c-4 -5 -2 -12 3 -15 5 -4 12 -2 15 3 4 5 2 12 -3 15 -5 4
-12 2 -15 -3z"/>
<path d="M4437 3234 c-11 -11 -8 -64 4 -64 5 0 8 4 4 9 -7 12 29 33 39 24 3
-3 6 2 6 11 0 11 -5 16 -14 13 -7 -3 -18 -1 -23 4 -5 5 -12 6 -16 3z"/>
<path d="M4565 3232 c-40 -4 -65 -16 -65 -34 0 -7 4 -7 13 -1 10 9 80 11 112
3 20 -5 32 0 32 14 0 16 -33 23 -92 18z"/>
<path d="M4670 3221 c0 -3 5 -13 10 -21 8 -13 12 -12 31 7 l22 22 -31 -1 c-18
-1 -32 -4 -32 -7z"/>
<path d="M4828 3173 c7 -3 16 -2 19 1 4 3 -2 6 -13 5 -11 0 -14 -3 -6 -6z"/>
</g>
</svg>
