<?xml version="1.0" standalone="no"?>
<!DOCTYPE svg PUBLIC "-//W3C//DTD SVG 20010904//EN"
 "http://www.w3.org/TR/2001/REC-SVG-20010904/DTD/svg10.dtd">
<svg version="1.0" xmlns="http://www.w3.org/2000/svg"
 width="300.000000pt" height="300.000000pt" viewBox="0 0 300.000000 300.000000"
 preserveAspectRatio="xMidYMid meet">
<metadata>
Created by potrace 1.14, written by Peter Selinger 2001-2017
</metadata>
<g transform="translate(0.000000,300.000000) scale(0.100000,-0.100000)"
fill="#000000" stroke="none">
<path d="M689 2996 c-2 -2 -24 -6 -49 -10 -198 -26 -334 -89 -445 -208 -41
-43 -106 -135 -111 -158 0 -3 -6 -18 -13 -35 -16 -37 -42 -121 -48 -155 -2
-14 -7 -36 -11 -50 -3 -14 -7 -398 -9 -855 -2 -768 -1 -837 16 -925 35 -182
87 -287 195 -396 104 -104 229 -160 431 -193 65 -11 1705 -10 1741 1 11 3 52
14 90 23 193 47 354 172 432 336 47 98 63 153 80 274 10 69 9 1657 -1 1724
-26 180 -86 310 -197 422 -105 106 -210 156 -410 194 -61 11 -228 14 -881 14
-443 0 -808 -1 -810 -3z"/>
</g>
</svg>
