<?xml version="1.0" standalone="no"?>
<!DOCTYPE svg PUBLIC "-//W3C//DTD SVG 20010904//EN"
 "http://www.w3.org/TR/2001/REC-SVG-20010904/DTD/svg10.dtd">
<svg version="1.0" xmlns="http://www.w3.org/2000/svg"
 width="1080.000000pt" height="1080.000000pt" viewBox="0 0 1080.000000 1080.000000"
 preserveAspectRatio="xMidYMid meet">
<metadata>
Created by potrace 1.14, written by Peter Selinger 2001-2017
</metadata>
<g transform="translate(0.000000,1080.000000) scale(0.100000,-0.100000)"
fill="#000000" stroke="none">
<path d="M0 5400 l0 -5400 5400 0 5400 0 0 5400 0 5400 -5400 0 -5400 0 0
-5400z m1557 625 c17 -49 50 -85 79 -85 13 0 36 16 58 40 l36 40 114 0 114 0
144 -99 c78 -55 172 -127 208 -160 35 -34 69 -61 74 -61 5 0 6 -30 2 -69 -6
-62 -5 -72 13 -90 19 -19 21 -33 21 -144 0 -68 3 -157 6 -198 l6 -74 -48 -25
c-32 -16 -54 -36 -63 -56 -13 -29 -18 -32 -77 -37 -35 -4 -97 -20 -141 -38
-70 -28 -93 -32 -221 -39 -137 -6 -144 -8 -215 -43 -39 -21 -80 -37 -89 -37
-13 0 -17 -8 -16 -32 0 -18 -7 -50 -16 -72 -11 -27 -16 -68 -16 -138 0 -84 -3
-105 -22 -137 -22 -38 -22 -40 -6 -127 15 -87 15 -90 -6 -129 -28 -51 -80 -69
-182 -60 -60 5 -77 2 -105 -14 -30 -17 -38 -18 -65 -6 l-32 13 -4 98 c-3 68 0
109 9 131 8 21 14 96 17 216 2 122 8 192 16 208 10 17 11 53 5 144 -10 161
-11 148 8 253 21 112 21 204 2 387 -20 189 -19 318 1 371 l16 42 101 27 c157
41 169 43 216 42 42 -2 45 -4 58 -42z m5088 -76 c139 -25 160 -37 151 -90 -3
-20 -2 -81 4 -135 l9 -99 -36 -90 -36 -90 12 -168 c12 -156 11 -170 -4 -188
-18 -19 -22 -92 -10 -151 4 -15 -3 -66 -15 -115 -20 -84 -21 -95 -8 -237 l13
-148 65 -23 c36 -13 142 -37 236 -54 l171 -32 73 35 c40 19 80 42 90 51 32 29
50 88 89 294 l39 203 -22 94 -23 94 17 337 c16 301 20 344 39 389 21 48 25 51
84 70 l62 21 80 -27 c105 -35 108 -46 66 -191 -45 -157 -52 -193 -58 -324 -9
-227 -9 -237 8 -248 14 -9 13 -26 -7 -181 -31 -239 -80 -431 -152 -601 -37
-88 -68 -146 -83 -157 -47 -36 -160 -49 -455 -55 l-282 -6 -45 32 c-37 25 -55
31 -100 31 -66 0 -95 19 -214 140 -53 54 -83 92 -83 106 0 45 -33 180 -51 210
-15 24 -19 50 -19 113 0 45 -5 89 -11 99 -12 18 -3 118 21 247 5 28 9 109 9
180 1 138 25 260 55 277 8 5 19 23 26 42 12 38 3 71 -27 98 -16 15 -19 33 -21
117 -2 113 -10 102 103 131 92 24 100 23 240 -1z m-1162 -64 c22 -9 68 -15
114 -15 117 0 119 -1 133 -75 7 -35 9 -68 5 -74 -9 -16 -38 -14 -241 11 -177
22 -184 22 -256 5 -44 -11 -107 -17 -155 -16 -44 1 -86 -2 -92 -5 -17 -11 -13
-41 9 -69 11 -14 20 -32 20 -40 0 -14 47 -61 69 -69 7 -2 5 -23 -5 -58 -9 -32
-18 -114 -21 -195 -4 -120 -2 -148 14 -196 13 -38 16 -65 11 -85 -13 -50 -27
-173 -38 -339 -11 -164 -22 -215 -46 -215 -8 0 -14 -7 -14 -15 0 -8 7 -15 16
-15 14 0 16 -7 11 -40 -6 -46 -9 -45 98 -29 39 6 108 10 155 10 47 -1 121 4
165 10 44 6 132 15 195 20 63 4 137 11 163 15 65 8 97 -19 97 -81 l0 -42 -59
-22 c-47 -17 -89 -22 -210 -26 -155 -5 -284 -26 -398 -66 -40 -13 -104 -22
-207 -28 -133 -8 -158 -7 -225 10 -41 10 -99 19 -129 19 -38 0 -62 6 -83 21
-35 25 -36 47 -8 131 21 59 21 63 5 113 -23 72 -20 108 11 164 26 45 27 52 16
92 -9 33 -9 55 0 86 8 32 8 54 -2 91 -10 41 -9 69 4 168 9 65 18 182 21 259 4
85 14 170 25 217 19 77 25 215 10 253 -5 13 0 37 14 70 l22 50 109 6 c60 3
229 6 375 7 218 2 273 -1 302 -13z m3188 -36 c26 -19 29 -26 29 -80 0 -63 19
-114 51 -137 17 -12 18 -15 3 -37 -10 -15 -12 -30 -7 -39 10 -18 79 -66 96
-66 7 0 53 -69 104 -153 104 -173 402 -562 429 -562 11 0 21 11 25 28 8 28 -4
138 -20 192 -5 17 -15 69 -22 117 -9 68 -9 96 0 130 10 37 10 54 -3 104 -14
54 -20 258 -13 412 2 52 37 86 96 96 48 7 212 -10 221 -24 3 -6 12 -40 19 -76
12 -56 11 -67 -2 -82 -41 -46 -46 -247 -6 -295 17 -21 17 -24 -12 -74 -33 -58
-32 -81 4 -110 18 -14 23 -29 23 -73 1 -30 3 -100 5 -155 3 -76 0 -116 -15
-166 -16 -60 -17 -76 -6 -155 6 -49 13 -121 15 -159 2 -39 6 -109 9 -156 l6
-86 -57 -17 c-91 -26 -212 -36 -245 -19 -28 13 -38 46 -18 58 6 3 10 26 10 49
0 41 -13 61 -228 347 -160 214 -234 320 -248 358 -10 30 -36 73 -56 96 -33 37
-38 51 -47 119 -10 83 -22 106 -55 106 -40 0 -66 -27 -65 -68 1 -20 -6 -120
-15 -222 -16 -183 -15 -229 6 -283 16 -41 -30 -537 -52 -567 -18 -24 -64 -32
-289 -49 -127 -10 -155 -6 -174 26 -5 8 -8 89 -7 181 1 149 3 170 21 199 l21
34 -23 56 c-22 55 -22 58 -8 157 8 56 14 171 14 256 1 140 3 159 23 197 12 23
22 53 22 67 0 14 7 29 15 33 12 7 13 19 5 68 -5 33 -10 104 -10 157 0 53 -4
108 -9 121 -8 20 -5 29 15 48 13 12 24 33 24 45 0 27 5 28 186 44 66 6 134 15
150 20 16 4 31 9 32 9 2 1 17 -8 33 -20z m-5089 -63 c26 -24 50 -56 54 -71 8
-33 52 -61 109 -69 32 -5 58 -1 106 17 35 13 82 27 103 31 38 7 41 5 97 -50
49 -49 59 -64 59 -93 0 -28 8 -42 45 -75 l45 -42 0 -165 c0 -114 5 -183 15
-222 15 -57 15 -57 -16 -117 -37 -73 -46 -123 -29 -155 11 -20 9 -31 -13 -79
-14 -30 -39 -75 -55 -98 -49 -71 -62 -104 -69 -174 l-8 -67 -63 -13 c-35 -7
-79 -22 -98 -33 -47 -28 -148 -67 -212 -81 -29 -7 -68 -23 -88 -36 -29 -20
-47 -24 -109 -24 -40 0 -95 -5 -122 -10 -45 -10 -60 -7 -250 52 l-202 63 -100
115 -101 114 0 219 c0 215 0 219 24 250 51 67 130 239 186 403 37 111 38 112
148 235 128 144 197 200 256 210 22 3 86 7 141 7 l100 1 47 -43z m2033 -607
c26 -6 71 -6 130 0 l90 10 22 -27 c26 -31 27 -42 12 -109 l-12 -49 -81 -12
c-45 -7 -153 -12 -240 -12 -142 0 -162 -2 -196 -21 l-37 -21 -43 22 c-43 22
-103 76 -98 89 2 3 21 32 43 63 33 47 45 57 70 58 17 0 55 7 85 14 59 14 188
12 255 -5z"/>
<path d="M1592 5878 c-9 -9 -12 -68 -12 -215 0 -112 -4 -203 -9 -203 -5 0 -14
-14 -22 -31 -10 -25 -10 -46 -1 -103 10 -59 10 -79 -3 -122 -13 -46 -16 -196
-3 -209 2 -2 26 2 53 10 27 9 56 13 65 10 9 -3 62 17 119 45 65 32 115 50 138
50 31 0 43 8 92 61 31 34 59 67 63 74 7 12 -25 252 -43 319 -8 28 -45 77 -136
177 l-125 139 -68 0 c-38 0 -74 2 -82 5 -7 3 -19 0 -26 -7z"/>
<path d="M3590 5571 c-52 -3 -105 -12 -117 -19 -52 -30 -135 -147 -212 -300
-43 -87 -88 -175 -100 -198 -12 -23 -25 -74 -31 -120 -5 -43 -13 -90 -18 -104
-6 -14 -15 -60 -22 -103 l-13 -77 36 -73 c34 -69 74 -114 182 -208 17 -14 41
-39 55 -57 21 -26 33 -31 76 -34 l52 -3 125 157 c70 86 135 159 145 162 24 8
34 31 78 179 47 159 62 333 40 447 -9 41 -18 107 -22 145 -4 39 -12 77 -19 85
-7 8 -22 36 -33 62 -21 49 -46 69 -84 66 -13 -1 -66 -4 -118 -7z"/>
</g>
</svg>
